<?xml version="1.0" encoding="UTF-8" standalone="no" ?>
<!DOCTYPE svg PUBLIC "-//W3C//DTD SVG 1.1//EN" "http://www.w3.org/Graphics/SVG/1.1/DTD/svg11.dtd">
<svg xmlns="http://www.w3.org/2000/svg" xmlns:xlink="http://www.w3.org/1999/xlink" version="1.1" width="1280" height="1024" viewBox="0 0 1280 1024" xml:space="preserve">
<desc>Created with Fabric.js 4.4.0</desc>
<defs>
</defs>
<g transform="matrix(1 0 0 1 640 512)" id="background-logo"  >
<rect style="stroke: none; stroke-width: 0; stroke-dasharray: none; stroke-linecap: butt; stroke-dashoffset: 0; stroke-linejoin: miter; stroke-miterlimit: 4; fill: rgb(255,255,255); fill-rule: nonzero; opacity: 1;"  paint-order="stroke"  x="-640" y="-512" rx="0" ry="0" width="1280" height="1024" />
</g>
<g transform="matrix(1.7346095708466367 0 0 1.7346095708466367 640.106349003577 434.90629767564536)" id="logo-logo"  >
<g style=""  paint-order="stroke"   >
		<g transform="matrix(0.19297500200216167 0 0 -0.19297500200216167 -39.589078723647276 -72.48621554141332)"  >
<path style="stroke: rgb(196,127,127); stroke-width: 20; stroke-dasharray: none; stroke-linecap: butt; stroke-dashoffset: 0; stroke-linejoin: miter; stroke-miterlimit: 10; fill: none; fill-rule: nonzero; opacity: 1;"  paint-order="stroke"  transform=" translate(-794.8471884590895, -1375.6256314872317)" d="M 604.887 1195.24 C 542.953 1234.05 479.39099999999996 1289.56 470.30499999999995 1366.71 C 458.215 1469.38 545.961 1520.8700000000001 637.434 1499.6200000000001 C 711.793 1482.3400000000001 778.3629999999999 1433.8000000000002 817.5509999999999 1368.2900000000002 C 774.8589999999999 1439.6600000000003 850.4879999999999 1567.4 897.4839999999999 1617.1200000000001 C 967.5939999999999 1691.3100000000002 1095.24 1704.1100000000001 1117.73 1577.71 C 1124.26 1541.05 1118.31 1503.3400000000001 1109.96 1467.05 C 1089.03 1376.19 1064.94 1286.9099999999999 1035.02 1198.58 C 1021.48 1158.6299999999999 998.43 1101.02 956.41 1084.36 C 912.543 1066.9699999999998 856.2769999999999 1091.2299999999998 814.066 1103.02 C 740.422 1123.58 669.691 1154.6399999999999 604.8870000000001 1195.24 z" stroke-linecap="round" />
</g>
		<g transform="matrix(0.19297500200216167 0 0 -0.19297500200216167 -83.24134275675596 -70.61327128573245)"  >
<path style="stroke: rgb(196,127,127); stroke-width: 20; stroke-dasharray: none; stroke-linecap: butt; stroke-dashoffset: 0; stroke-linejoin: miter; stroke-miterlimit: 10; fill: none; fill-rule: nonzero; opacity: 1;"  paint-order="stroke"  transform=" translate(-568.640355552205, -1365.9199999999998)" d="M 573.547 1502.61 C 581.559 1434.6799999999998 584.059 1366.4199999999998 572.875 1298.9899999999998 C 569.039 1275.2899999999997 563.531 1252.2599999999998 556.855 1229.3899999999999 L 556.855 1229.2299999999998" stroke-linecap="round" />
</g>
		<g transform="matrix(0.19297500200216167 0 0 -0.19297500200216167 -74.02485177603705 -67.47260312814745)"  >
<path style="stroke: rgb(196,127,127); stroke-width: 20; stroke-dasharray: none; stroke-linecap: butt; stroke-dashoffset: 0; stroke-linejoin: miter; stroke-miterlimit: 10; fill: none; fill-rule: nonzero; opacity: 1;"  paint-order="stroke"  transform=" translate(-616.400380866861, -1349.645)" d="M 621.777 1502.44 C 631.1210000000001 1429.18 635.133 1355.0700000000002 622.9490000000001 1282.3000000000002 C 618.277 1253.2600000000002 610.9340000000001 1224.89 602.2500000000001 1196.8500000000001" stroke-linecap="round" />
</g>
		<g transform="matrix(0.19297500200216167 0 0 -0.19297500200216167 -64.67109471614066 -63.59187583788395)"  >
<path style="stroke: rgb(196,127,127); stroke-width: 20; stroke-dasharray: none; stroke-linecap: butt; stroke-dashoffset: 0; stroke-linejoin: miter; stroke-miterlimit: 10; fill: none; fill-rule: nonzero; opacity: 1;"  paint-order="stroke"  transform=" translate(-664.8717215216034, -1329.535)" d="M 671.348 1489.43 C 681.031 1414.8200000000002 685.367 1339.72 673.02 1265.6100000000001 C 667.6759999999999 1233.0700000000002 659.164 1201.19 649.148 1169.64" stroke-linecap="round" />
</g>
		<g transform="matrix(0.19297500200216167 0 0 -0.19297500200216167 -54.787566915889954 -58.808025538250234)"  >
<path style="stroke: rgb(196,127,127); stroke-width: 20; stroke-dasharray: none; stroke-linecap: butt; stroke-dashoffset: 0; stroke-linejoin: miter; stroke-miterlimit: 10; fill: none; fill-rule: nonzero; opacity: 1;"  paint-order="stroke"  transform=" translate(-716.0883438701288, -1304.745)" d="M 720.082 1465.72 C 730.598 1388.1100000000001 735.938 1309.51 723.086 1232.23 C 718.246 1202.19 710.57 1172.81 701.559 1143.77" stroke-linecap="round" />
</g>
		<g transform="matrix(0.19297500200216167 0 0 -0.19297500200216167 -92.15058477437833 -84.7515848074209)"  >
<path style="stroke: rgb(196,127,127); stroke-width: 20; stroke-dasharray: none; stroke-linecap: butt; stroke-dashoffset: 0; stroke-linejoin: miter; stroke-miterlimit: 10; fill: none; fill-rule: nonzero; opacity: 1;"  paint-order="stroke"  transform=" translate(-522.4725000000001, -1439.185)" d="M 469.398 1394.29 C 483.086 1402.97 495.93800000000005 1413.32 508.617 1423.5 C 531.988 1442.36 555.855 1461.55 575.547 1484.08" stroke-linecap="round" />
</g>
		<g transform="matrix(0.19297500200216167 0 0 -0.19297500200216167 -91.07185451318628 -73.2541341881321)"  >
<path style="stroke: rgb(196,127,127); stroke-width: 20; stroke-dasharray: none; stroke-linecap: butt; stroke-dashoffset: 0; stroke-linejoin: miter; stroke-miterlimit: 10; fill: none; fill-rule: nonzero; opacity: 1;"  paint-order="stroke"  transform=" translate(-528.0625, -1379.605)" d="M 476.238 1338.21 C 493.598 1348.06 509.625 1360.91 525.313 1373.43 C 544.004 1388.45 563.031 1403.8 579.887 1421" stroke-linecap="round" />
</g>
		<g transform="matrix(0.19297500200216167 0 0 -0.19297500200216167 -88.97778627895974 -62.33464369983977)"  >
<path style="stroke: rgb(196,127,127); stroke-width: 20; stroke-dasharray: none; stroke-linecap: butt; stroke-dashoffset: 0; stroke-linejoin: miter; stroke-miterlimit: 10; fill: none; fill-rule: nonzero; opacity: 1;"  paint-order="stroke"  transform=" translate(-538.914, -1323.02)" d="M 498.773 1291.64 C 513.961 1300.8200000000002 528.148 1312.18 542.004 1323.3600000000001 C 554.5160000000001 1333.38 567.035 1343.5500000000002 579.0550000000001 1354.4" stroke-linecap="round" />
</g>
		<g transform="matrix(0.19297500200216167 0 0 -0.19297500200216167 -51.08569732332029 -33.509967650776986)"  >
<path style="stroke: rgb(196,127,127); stroke-width: 20; stroke-dasharray: none; stroke-linecap: butt; stroke-dashoffset: 0; stroke-linejoin: miter; stroke-miterlimit: 10; fill: none; fill-rule: nonzero; opacity: 1;"  paint-order="stroke"  transform=" translate(-735.2715000000001, -1173.65)" d="M 721.418 1223.05 C 727.594 1204.86 733.266 1186.5 738.441 1167.97 C 742.445 1153.45 746.1170000000001 1138.94 749.125 1124.25" stroke-linecap="round" />
</g>
		<g transform="matrix(0.19297500200216167 0 0 -0.19297500200216167 -44.757082132659434 -42.39839624299654)"  >
<path style="stroke: rgb(196,127,127); stroke-width: 20; stroke-dasharray: none; stroke-linecap: butt; stroke-dashoffset: 0; stroke-linejoin: miter; stroke-miterlimit: 10; fill: none; fill-rule: nonzero; opacity: 1;"  paint-order="stroke"  transform=" translate(-768.0664999999999, -1219.71)" d="M 730.598 1333.87 C 754.8009999999999 1283.4699999999998 774.656 1230.7299999999998 789.512 1176.82 C 796.02 1153.29 801.5269999999999 1129.59 805.535 1105.55" stroke-linecap="round" />
</g>
		<g transform="matrix(0.19297500200216167 0 0 -0.19297500200216167 -40.409162362548614 -52.5932655987707)"  >
<path style="stroke: rgb(196,127,127); stroke-width: 20; stroke-dasharray: none; stroke-linecap: butt; stroke-dashoffset: 0; stroke-linejoin: miter; stroke-miterlimit: 10; fill: none; fill-rule: nonzero; opacity: 1;"  paint-order="stroke"  transform=" translate(-790.5975000000001, -1272.5400000000002)" d="M 721.25 1455.88 C 773.824 1375.1000000000001 813.883 1286.3100000000002 839.586 1193.5100000000002 C 848.9300000000001 1159.3000000000002 856.605 1124.4100000000003 859.945 1089.2000000000003" stroke-linecap="round" />
</g>
		<g transform="matrix(0.19297500200216167 0 0 -0.19297500200216167 -27.332790276878256 -47.857659049637675)"  >
<path style="stroke: rgb(196,127,127); stroke-width: 20; stroke-dasharray: none; stroke-linecap: butt; stroke-dashoffset: 0; stroke-linejoin: miter; stroke-miterlimit: 10; fill: none; fill-rule: nonzero; opacity: 1;"  paint-order="stroke"  transform=" translate(-858.3595, -1248)" d="M 804.867 1417.32 C 841.086 1351.8999999999999 869.797 1282.3 889.6519999999999 1210.1999999999998 C 901.5039999999999 1167.1399999999999 910.352 1123.0699999999997 911.852 1078.6799999999998" stroke-linecap="round" />
</g>
		<g transform="matrix(0.19297500200216167 0 0 -0.19297500200216167 -7.2995728815288885 -25.779389070570346)"  >
<path style="stroke: rgb(196,127,127); stroke-width: 20; stroke-dasharray: none; stroke-linecap: butt; stroke-dashoffset: 0; stroke-linejoin: miter; stroke-miterlimit: 10; fill: none; fill-rule: nonzero; opacity: 1;"  paint-order="stroke"  transform=" translate(-962.172, -1133.5900000000001)" d="M 1015.66 1149.95 C 978.4409999999999 1145.28 942.063 1134.26 908.684 1117.23" stroke-linecap="round" />
</g>
		<g transform="matrix(0.19297500200216167 0 0 -0.19297500200216167 -6.204246770164616 -36.037940177005225)"  >
<path style="stroke: rgb(196,127,127); stroke-width: 20; stroke-dasharray: none; stroke-linecap: butt; stroke-dashoffset: 0; stroke-linejoin: miter; stroke-miterlimit: 10; fill: none; fill-rule: nonzero; opacity: 1;"  paint-order="stroke"  transform=" translate(-967.8480000000001, -1186.75)" d="M 899.336 1170.98 C 941.895 1191.34 989.125 1202.02 1036.3600000000001 1202.52" stroke-linecap="round" />
</g>
		<g transform="matrix(0.19297500200216167 0 0 -0.19297500200216167 -5.962642067657782 -45.885155473275034)"  >
<path style="stroke: rgb(196,127,127); stroke-width: 20; stroke-dasharray: none; stroke-linecap: butt; stroke-dashoffset: 0; stroke-linejoin: miter; stroke-miterlimit: 10; fill: none; fill-rule: nonzero; opacity: 1;"  paint-order="stroke"  transform=" translate(-969.1, -1237.778450286838)" d="M 885.98 1222.72 C 937.5550000000001 1246.42 995.469 1256.6000000000001 1052.22 1251.59" stroke-linecap="round" />
</g>
		<g transform="matrix(0.19297500200216167 0 0 -0.19297500200216167 -6.188712282503445 -55.56979208300166)"  >
<path style="stroke: rgb(196,127,127); stroke-width: 20; stroke-dasharray: none; stroke-linecap: butt; stroke-dashoffset: 0; stroke-linejoin: miter; stroke-miterlimit: 10; fill: none; fill-rule: nonzero; opacity: 1;"  paint-order="stroke"  transform=" translate(-967.9285, -1287.9644148379264)" d="M 869.797 1273.12 C 930.543 1301 1000.3100000000001 1309.6699999999998 1066.06 1297.32" stroke-linecap="round" />
</g>
		<g transform="matrix(0.19297500200216167 0 0 -0.19297500200216167 2.926268962066729 -74.86451057984019)"  >
<path style="stroke: rgb(196,127,127); stroke-width: 20; stroke-dasharray: none; stroke-linecap: butt; stroke-dashoffset: 0; stroke-linejoin: miter; stroke-miterlimit: 10; fill: none; fill-rule: nonzero; opacity: 1;"  paint-order="stroke"  transform=" translate(-1015.1625, -1387.95)" d="M 916.355 1290.15 C 933.383 1344.72 967.2620000000001 1394.13 1012.32 1429.18 C 1040.03 1450.7 1071.5700000000002 1466.89 1103.6200000000001 1481.25 C 1107.13 1482.75 1110.46 1484.25 1113.97 1485.75" stroke-linecap="round" />
</g>
		<g transform="matrix(0.19297500200216167 0 0 -0.19297500200216167 6.662554463331617 -70.56406266022194)"  >
<path style="stroke: rgb(196,127,127); stroke-width: 20; stroke-dasharray: none; stroke-linecap: butt; stroke-dashoffset: 0; stroke-linejoin: miter; stroke-miterlimit: 10; fill: none; fill-rule: nonzero; opacity: 1;"  paint-order="stroke"  transform=" translate(-1034.524, -1365.665)" d="M 967.598 1300.49 C 986.289 1337.38 1012.99 1370.43 1045.7 1395.79 C 1063.07 1409.31 1081.92 1420.6599999999999 1101.45 1430.84" stroke-linecap="round" />
</g>
		<g transform="matrix(0.19297500200216167 0 0 -0.19297500200216167 -0.5660961366673405 -77.61440435837093)"  >
<path style="stroke: rgb(196,127,127); stroke-width: 20; stroke-dasharray: none; stroke-linecap: butt; stroke-dashoffset: 0; stroke-linejoin: miter; stroke-miterlimit: 10; fill: none; fill-rule: nonzero; opacity: 1;"  paint-order="stroke"  transform=" translate(-997.065, -1402.1999999999998)" d="M 872.48 1274.11 C 881.2230000000001 1347.6699999999998 920.465 1417.12 978.961 1462.56 C 1006.6800000000001 1484.09 1038.17 1500.23 1070.22 1514.55 C 1086.66 1521.9099999999999 1103.68 1528.9199999999998 1121.65 1530.29" stroke-linecap="round" />
</g>
		<g transform="matrix(0.19297500200216167 0 0 -0.19297500200216167 10.365937726755078 -64.60692434841522)"  >
<path style="stroke: rgb(196,127,127); stroke-width: 20; stroke-dasharray: none; stroke-linecap: butt; stroke-dashoffset: 0; stroke-linejoin: miter; stroke-miterlimit: 10; fill: none; fill-rule: nonzero; opacity: 1;"  paint-order="stroke"  transform=" translate(-1053.715, -1334.795)" d="M 1022.17 1302.5 C 1038.03 1325.03 1057.22 1345.39 1079.08 1362.41 C 1081.08 1363.92 1083.1 1365.5900000000001 1085.26 1367.0900000000001" stroke-linecap="round" />
</g>
		<g transform="matrix(0.19297500200216167 0 0 -0.19297500200216167 -26.09244345150927 -67.58549350431858)"  >
<path style="stroke: rgb(196,127,127); stroke-width: 20; stroke-dasharray: none; stroke-linecap: butt; stroke-dashoffset: 0; stroke-linejoin: miter; stroke-miterlimit: 10; fill: none; fill-rule: nonzero; opacity: 1;"  paint-order="stroke"  transform=" translate(-864.787, -1350.23)" d="M 891.992 1348.06 C 873.9649999999999 1350.3899999999999 855.605 1351.73 837.582 1352.3999999999999" stroke-linecap="round" />
</g>
		<g transform="matrix(0.19297500200216167 0 0 -0.19297500200216167 -26.334048154016045 -78.28394234899923)"  >
<path style="stroke: rgb(196,127,127); stroke-width: 20; stroke-dasharray: none; stroke-linecap: butt; stroke-dashoffset: 0; stroke-linejoin: miter; stroke-miterlimit: 10; fill: none; fill-rule: nonzero; opacity: 1;"  paint-order="stroke"  transform=" translate(-863.5349999999999, -1405.6695581483696)" d="M 921.699 1402.13 C 896.832 1406.14 871.461 1407.98 846.4259999999999 1408.8100000000002 C 834.242 1409.3100000000002 821.895 1409.4800000000002 809.5429999999999 1408.4800000000002 C 808.2069999999999 1408.4800000000002 806.7029999999999 1408.4800000000002 805.3709999999999 1408.3100000000002" stroke-linecap="round" />
</g>
		<g transform="matrix(0.19297500200216167 0 0 -0.19297500200216167 -21.728603243733403 -88.20053170681533)"  >
<path style="stroke: rgb(196,127,127); stroke-width: 20; stroke-dasharray: none; stroke-linecap: butt; stroke-dashoffset: 0; stroke-linejoin: miter; stroke-miterlimit: 10; fill: none; fill-rule: nonzero; opacity: 1;"  paint-order="stroke"  transform=" translate(-887.4005, -1457.057506094628)" d="M 811.543 1464.39 C 823.227 1465.23 834.91 1464.89 846.426 1464.5500000000002 C 885.648 1463.2200000000003 925.7030000000001 1460.0500000000002 963.258 1449.2000000000003" stroke-linecap="round" />
</g>
		<g transform="matrix(0.19297500200216167 0 0 -0.19297500200216167 -14.111590452205121 -97.53693199884358)"  >
<path style="stroke: rgb(196,127,127); stroke-width: 20; stroke-dasharray: none; stroke-linecap: butt; stroke-dashoffset: 0; stroke-linejoin: miter; stroke-miterlimit: 10; fill: none; fill-rule: nonzero; opacity: 1;"  paint-order="stroke"  transform=" translate(-926.872, -1505.4389036599125)" d="M 832.574 1520.3 C 843.4219999999999 1520.8 854.2729999999999 1520.6399999999999 864.949 1520.3 C 918.1909999999999 1518.47 973.2729999999999 1513.1299999999999 1021.17 1490.26" stroke-linecap="round" />
</g>
		<g transform="matrix(0.19297500200216167 0 0 -0.19297500200216167 -19.94097931268641 -110.06701044507449)"  >
<path style="stroke: rgb(196,127,127); stroke-width: 20; stroke-dasharray: none; stroke-linecap: butt; stroke-dashoffset: 0; stroke-linejoin: miter; stroke-miterlimit: 10; fill: none; fill-rule: nonzero; opacity: 1;"  paint-order="stroke"  transform=" translate(-896.664, -1570.37)" d="M 902.172 1621.78 C 899.504 1587.3899999999999 895.828 1553.18 891.1560000000001 1518.96" stroke-linecap="round" />
</g>
		<g transform="matrix(0.19297500200216167 0 0 -0.19297500200216167 -11.889193841647284 -112.77251997314485)"  >
<path style="stroke: rgb(196,127,127); stroke-width: 20; stroke-dasharray: none; stroke-linecap: butt; stroke-dashoffset: 0; stroke-linejoin: miter; stroke-miterlimit: 10; fill: none; fill-rule: nonzero; opacity: 1;"  paint-order="stroke"  transform=" translate(-938.3885, -1584.39)" d="M 945.23 1653.65 C 942.559 1607.26 938.059 1561.19 931.547 1515.13" stroke-linecap="round" />
</g>
		<g transform="matrix(0.19297500200216167 0 0 -0.19297500200216167 -4.014076984940971 -113.57819060650385)"  >
<path style="stroke: rgb(196,127,127); stroke-width: 20; stroke-dasharray: none; stroke-linecap: butt; stroke-dashoffset: 0; stroke-linejoin: miter; stroke-miterlimit: 10; fill: none; fill-rule: nonzero; opacity: 1;"  paint-order="stroke"  transform=" translate(-979.1975, -1588.565)" d="M 986.957 1669.51 C 984.453 1615.27 979.277 1561.19 971.438 1507.62" stroke-linecap="round" />
</g>
		<g transform="matrix(0.19297500200216167 0 0 -0.19297500200216167 3.7314571579207723 -112.62778872164316)"  >
<path style="stroke: rgb(196,127,127); stroke-width: 20; stroke-dasharray: none; stroke-linecap: butt; stroke-dashoffset: 0; stroke-linejoin: miter; stroke-miterlimit: 10; fill: none; fill-rule: nonzero; opacity: 1;"  paint-order="stroke"  transform=" translate(-1019.335, -1583.6399999999999)" d="M 1028.18 1672.35 C 1025.3400000000001 1612.9299999999998 1019.5000000000001 1553.6799999999998 1010.49 1494.9299999999998" stroke-linecap="round" />
</g>
		<g transform="matrix(0.19297500200216167 0 0 -0.19297500200216167 6.903966190836229 -104.64055338877375)"  >
<path style="stroke: rgb(196,127,127); stroke-width: 20; stroke-dasharray: none; stroke-linecap: butt; stroke-dashoffset: 0; stroke-linejoin: miter; stroke-miterlimit: 10; fill: none; fill-rule: nonzero; opacity: 1;"  paint-order="stroke"  transform=" translate(-1035.775, -1542.25)" d="M 1050.38 1505.28 C 1045.5400000000002 1531.48 1035.5300000000002 1556.68 1021.1700000000001 1579.22" stroke-linecap="round" />
</g>
		<g transform="matrix(0.19297500200216167 0 0 -0.19297500200216167 10.88118098210083 -112.73971422280445)"  >
<path style="stroke: rgb(196,127,127); stroke-width: 20; stroke-dasharray: none; stroke-linecap: butt; stroke-dashoffset: 0; stroke-linejoin: miter; stroke-miterlimit: 10; fill: none; fill-rule: nonzero; opacity: 1;"  paint-order="stroke"  transform=" translate(-1056.3850000000002, -1584.2200000000003)" d="M 1026.68 1647.14 C 1060.5600000000002 1613.93 1081.43 1568.3700000000001 1086.0900000000001 1521.3000000000002" stroke-linecap="round" />
</g>
		<g transform="matrix(0.19297500200216167 0 0 -0.19297500200216167 61.79538852210163 -23.934897954135863)"  >
<path style="stroke: rgb(196,127,127); stroke-width: 20; stroke-dasharray: none; stroke-linecap: butt; stroke-dashoffset: 0; stroke-linejoin: miter; stroke-miterlimit: 10; fill: none; fill-rule: nonzero; opacity: 1;"  paint-order="stroke"  transform=" translate(-1320.2233573610765, -1124.0318132022412)" d="M 1396.89 929.77 C 1446.24 942.941 1500.13 966.941 1522.0700000000002 1016.61 C 1551.2800000000002 1082.7 1503.2600000000002 1135.15 1437.7900000000002 1139.79 C 1384.5600000000002 1143.55 1330.1100000000001 1124.82 1290.4500000000003 1089.1299999999999 C 1333.6500000000003 1128.02 1309.4200000000003 1228.9099999999999 1288.2600000000002 1271.8 C 1256.7000000000003 1335.78 1174.0700000000002 1370.61 1133.0300000000002 1290.8 C 1121.13 1267.6599999999999 1117.3300000000002 1241.25 1115.4500000000003 1215.28 C 1110.7200000000003 1150.28 1108.4500000000003 1085.69 1110.2500000000002 1020.53 C 1111.0700000000002 991.0509999999999 1114.6100000000001 947.828 1139.2500000000002 928.0509999999999 C 1164.9700000000003 907.3979999999999 1207.5500000000002 912.031 1238.1700000000003 911.2189999999999 C 1291.6000000000004 909.789 1345.2300000000002 915.9879999999999 1396.8900000000003 929.77 z" stroke-linecap="round" />
</g>
		<g transform="matrix(0.19297500200216167 0 0 -0.19297500200216167 88.48414828725004 -6.870926474390643)"  >
<path style="stroke: rgb(196,127,127); stroke-width: 20; stroke-dasharray: none; stroke-linecap: butt; stroke-dashoffset: 0; stroke-linejoin: miter; stroke-miterlimit: 10; fill: none; fill-rule: nonzero; opacity: 1;"  paint-order="stroke"  transform=" translate(-1458.525, -1035.6060000000002)" d="M 1481.08 1128.63 C 1461.75 1084.91 1446.03 1039.8200000000002 1439.62 992.4800000000001 C 1437.3 975.8590000000002 1436.2399999999998 959.3400000000001 1436 942.6990000000002 L 1435.97 942.5820000000002" stroke-linecap="round" />
</g>
		<g transform="matrix(0.19297500200216167 0 0 -0.19297500200216167 81.80235848147953 -6.633470734426908)"  >
<path style="stroke: rgb(196,127,127); stroke-width: 20; stroke-dasharray: none; stroke-linecap: butt; stroke-dashoffset: 0; stroke-linejoin: miter; stroke-miterlimit: 10; fill: none; fill-rule: nonzero; opacity: 1;"  paint-order="stroke"  transform=" translate(-1423.8998426664318, -1034.3755)" d="M 1448.83 1138.45 C 1427.5 1091.43 1409.58 1042.75 1402.73 991.6410000000001 C 1399.88 971.2810000000001 1398.95 950.82 1398.97 930.301" stroke-linecap="round" />
</g>
		<g transform="matrix(0.19297500200216167 0 0 -0.19297500200216167 74.78437621688664 -5.957093352409288)"  >
<path style="stroke: rgb(196,127,127); stroke-width: 20; stroke-dasharray: none; stroke-linecap: butt; stroke-dashoffset: 0; stroke-linejoin: miter; stroke-miterlimit: 10; fill: none; fill-rule: nonzero; opacity: 1;"  paint-order="stroke"  transform=" translate(-1387.532529844669, -1030.8705)" d="M 1413.04 1139.96 C 1391.22 1092.1100000000001 1372.86 1042.8400000000001 1365.86 990.801 C 1362.7199999999998 967.9490000000001 1361.86 944.9100000000001 1362.05 921.7810000000001" stroke-linecap="round" />
</g>
		<g transform="matrix(0.19297500200216167 0 0 -0.19297500200216167 67.28372977295203 -4.770297090096022)"  >
<path style="stroke: rgb(196,127,127); stroke-width: 20; stroke-dasharray: none; stroke-linecap: butt; stroke-dashoffset: 0; stroke-linejoin: miter; stroke-miterlimit: 10; fill: none; fill-rule: nonzero; opacity: 1;"  paint-order="stroke"  transform=" translate(-1348.6640423923382, -1024.7205000000001)" d="M 1375.61 1134.16 C 1352.61 1084.48 1332.86 1033.0700000000002 1325.54 978.801 C 1322.59 957.738 1321.67 936.539 1321.72 915.2810000000001" stroke-linecap="round" />
</g>
		<g transform="matrix(0.19297500200216167 0 0 -0.19297500200216167 96.90171787458439 -14.618679829775317)"  >
<path style="stroke: rgb(196,127,127); stroke-width: 20; stroke-dasharray: none; stroke-linecap: butt; stroke-dashoffset: 0; stroke-linejoin: miter; stroke-miterlimit: 10; fill: none; fill-rule: nonzero; opacity: 1;"  paint-order="stroke"  transform=" translate(-1502.145, -1075.7549999999999)" d="M 1528.36 1034.84 C 1521 1043.4599999999998 1514.54 1053.01 1508.1599999999999 1062.4299999999998 C 1496.4499999999998 1079.84 1484.4499999999998 1097.56 1475.9299999999998 1116.6699999999998" stroke-linecap="round" />
</g>
		<g transform="matrix(0.19297500200216167 0 0 -0.19297500200216167 93.81508271755979 -7.160099514890788)"  >
<path style="stroke: rgb(196,127,127); stroke-width: 20; stroke-dasharray: none; stroke-linecap: butt; stroke-dashoffset: 0; stroke-linejoin: miter; stroke-miterlimit: 10; fill: none; fill-rule: nonzero; opacity: 1;"  paint-order="stroke"  transform=" translate(-1486.15, -1037.1045)" d="M 1512.25 998.789 C 1502.68 1008.9399999999999 1494.62 1020.8199999999999 1486.71 1032.42 C 1477.31 1046.29 1467.77 1060.47 1460.05 1075.42" stroke-linecap="round" />
</g>
		<g transform="matrix(0.19297500200216167 0 0 -0.19297500200216167 90.16785517971903 -0.29800493119492444)"  >
<path style="stroke: rgb(196,127,127); stroke-width: 20; stroke-dasharray: none; stroke-linecap: butt; stroke-dashoffset: 0; stroke-linejoin: miter; stroke-miterlimit: 10; fill: none; fill-rule: nonzero; opacity: 1;"  paint-order="stroke"  transform=" translate(-1467.25, -1001.5450000000001)" d="M 1487.61 972.32 C 1479.36 981.5780000000001 1472.2099999999998 992.09 1465.26 1002.4000000000001 C 1458.96 1011.6700000000001 1452.7 1021.0500000000001 1446.89 1030.77" stroke-linecap="round" />
</g>
		<g transform="matrix(0.19297500200216167 0 0 -0.19297500200216167 58.9252023555689 11.15766660016044)"  >
<path style="stroke: rgb(196,127,127); stroke-width: 20; stroke-dasharray: none; stroke-linecap: butt; stroke-dashoffset: 0; stroke-linejoin: miter; stroke-miterlimit: 10; fill: none; fill-rule: nonzero; opacity: 1;"  paint-order="stroke"  transform=" translate(-1305.35, -942.1814999999999)" d="M 1324.77 972.332 C 1316.8899999999999 961.449 1309.33 950.352 1302.06 939.039 C 1296.3999999999999 930.172 1290.96 921.2189999999999 1285.9299999999998 912.031" stroke-linecap="round" />
</g>
		<g transform="matrix(0.19297500200216167 0 0 -0.19297500200216167 56.52652308068218 3.9186918375544053)"  >
<path style="stroke: rgb(196,127,127); stroke-width: 20; stroke-dasharray: none; stroke-linecap: butt; stroke-dashoffset: 0; stroke-linejoin: miter; stroke-miterlimit: 10; fill: none; fill-rule: nonzero; opacity: 1;"  paint-order="stroke"  transform=" translate(-1292.92, -979.694)" d="M 1341.45 1048.24 C 1314.9 1019.55 1290.78 988.41 1269.77 955.461 C 1260.58 941.082 1252.02 926.379 1244.3899999999999 911.148" stroke-linecap="round" />
</g>
		<g transform="matrix(0.19297500200216167 0 0 -0.19297500200216167 55.72085244732307 -3.7869929673939566)"  >
<path style="stroke: rgb(196,127,127); stroke-width: 20; stroke-dasharray: none; stroke-linecap: butt; stroke-dashoffset: 0; stroke-linejoin: miter; stroke-miterlimit: 10; fill: none; fill-rule: nonzero; opacity: 1;"  paint-order="stroke"  transform=" translate(-1288.745, -1019.625)" d="M 1372.8 1127.82 C 1321.05 1084.6799999999998 1276.03 1033.61 1239.76 976.91 C 1226.47 955.9879999999999 1214.16 934.262 1204.69 911.43" stroke-linecap="round" />
</g>
		<g transform="matrix(0.19297500200216167 0 0 -0.19297500200216167 46.010350346574285 -3.315169087498731)"  >
<path style="stroke: rgb(196,127,127); stroke-width: 20; stroke-dasharray: none; stroke-linecap: butt; stroke-dashoffset: 0; stroke-linejoin: miter; stroke-miterlimit: 10; fill: none; fill-rule: nonzero; opacity: 1;"  paint-order="stroke"  transform=" translate(-1238.425, -1017.18)" d="M 1309 1119.27 C 1271.35 1083.03 1237.85 1042.44 1209.75 998.371 C 1192.97 972.0509999999999 1177.99 944.43 1167.85 915.0899999999999" stroke-linecap="round" />
</g>
		<g transform="matrix(0.19297500200216167 0 0 -0.19297500200216167 28.084902410593543 7.30906964773024)"  >
<path style="stroke: rgb(196,127,127); stroke-width: 20; stroke-dasharray: none; stroke-linecap: butt; stroke-dashoffset: 0; stroke-linejoin: miter; stroke-miterlimit: 10; fill: none; fill-rule: nonzero; opacity: 1;"  paint-order="stroke"  transform=" translate(-1145.535, -962.125)" d="M 1113.17 984.059 C 1137.0700000000002 973.281 1159.1100000000001 958.43 1177.9 940.1909999999999" stroke-linecap="round" />
</g>
		<g transform="matrix(0.19297500200216167 0 0 -0.19297500200216167 29.46563854991905 0.23171144930097398)"  >
<path style="stroke: rgb(196,127,127); stroke-width: 20; stroke-dasharray: none; stroke-linecap: butt; stroke-dashoffset: 0; stroke-linejoin: miter; stroke-miterlimit: 10; fill: none; fill-rule: nonzero; opacity: 1;"  paint-order="stroke"  transform=" translate(-1152.69, -998.8)" d="M 1195.21 974.16 C 1170.97 996.52 1141.6100000000001 1013.38 1110.17 1023.4399999999999" stroke-linecap="round" />
</g>
		<g transform="matrix(0.19297500200216167 0 0 -0.19297500200216167 31.30662006901963 -6.3159303686323085)"  >
<path style="stroke: rgb(196,127,127); stroke-width: 20; stroke-dasharray: none; stroke-linecap: butt; stroke-dashoffset: 0; stroke-linejoin: miter; stroke-miterlimit: 10; fill: none; fill-rule: nonzero; opacity: 1;"  paint-order="stroke"  transform=" translate(-1162.23, -1032.73)" d="M 1214.78 1005.98 C 1185.21 1032.42 1148.61 1051.14 1109.68 1059.48" stroke-linecap="round" />
</g>
		<g transform="matrix(0.19297500200216167 0 0 -0.19297500200216167 33.364698465372726 -12.465078807431183)"  >
<path style="stroke: rgb(196,127,127); stroke-width: 20; stroke-dasharray: none; stroke-linecap: butt; stroke-dashoffset: 0; stroke-linejoin: miter; stroke-miterlimit: 10; fill: none; fill-rule: nonzero; opacity: 1;"  paint-order="stroke"  transform=" translate(-1172.895, -1064.5949999999998)" d="M 1235.96 1036.31 C 1201.1100000000001 1067.4299999999998 1156.3 1087.59 1109.83 1092.8799999999999" stroke-linecap="round" />
</g>
		<g transform="matrix(0.19297500200216167 0 0 -0.19297500200216167 31.356793569540116 -27.582740464280562)"  >
<path style="stroke: rgb(196,127,127); stroke-width: 20; stroke-dasharray: none; stroke-linecap: butt; stroke-dashoffset: 0; stroke-linejoin: miter; stroke-miterlimit: 10; fill: none; fill-rule: nonzero; opacity: 1;"  paint-order="stroke"  transform=" translate(-1162.4899999999998, -1142.935)" d="M 1208.36 1057.27 C 1208.2199999999998 1097.23 1195.76 1137.2 1172.87 1169.8899999999999 C 1158.8 1189.9699999999998 1141.05 1207.28 1122.61 1223.4599999999998 C 1120.58 1225.1899999999998 1118.6499999999999 1226.8799999999999 1116.62 1228.6" stroke-linecap="round" />
</g>
		<g transform="matrix(0.19297500200216167 0 0 -0.19297500200216167 27.97587153446233 -25.48027781746697)"  >
<path style="stroke: rgb(196,127,127); stroke-width: 20; stroke-dasharray: none; stroke-linecap: butt; stroke-dashoffset: 0; stroke-linejoin: miter; stroke-miterlimit: 10; fill: none; fill-rule: nonzero; opacity: 1;"  paint-order="stroke"  transform=" translate(-1144.97, -1132.04)" d="M 1176.26 1074.73 C 1171.37 1103.21 1160.33 1130.78 1143.7 1154.46 C 1134.89 1167.07 1124.63 1178.52 1113.68 1189.3500000000001" stroke-linecap="round" />
</g>
		<g transform="matrix(0.19297500200216167 0 0 -0.19297500200216167 34.55425129393507 -28.701030600883115)"  >
<path style="stroke: rgb(196,127,127); stroke-width: 20; stroke-dasharray: none; stroke-linecap: butt; stroke-dashoffset: 0; stroke-linejoin: miter; stroke-miterlimit: 10; fill: none; fill-rule: nonzero; opacity: 1;"  paint-order="stroke"  transform=" translate(-1179.0592845768647, -1148.73)" d="M 1234.38 1037.53 C 1243.67 1088.46 1231.75 1142.93 1202.0300000000002 1185.32 C 1187.9500000000003 1205.4099999999999 1170.2200000000003 1222.6699999999998 1151.7800000000002 1238.83 C 1142.3000000000002 1247.1399999999999 1132.3700000000001 1255.32 1120.65 1259.9299999999998" stroke-linecap="round" />
</g>
		<g transform="matrix(0.19297500200216167 0 0 -0.19297500200216167 24.275575871070885 -22.262419659080933)"  >
<path style="stroke: rgb(196,127,127); stroke-width: 20; stroke-dasharray: none; stroke-linecap: butt; stroke-dashoffset: 0; stroke-linejoin: miter; stroke-miterlimit: 10; fill: none; fill-rule: nonzero; opacity: 1;"  paint-order="stroke"  transform=" translate(-1125.795, -1115.365)" d="M 1140.22 1087.3 C 1134.27 1105.61 1125.64 1123.1599999999999 1114.53 1139.03 C 1113.51 1140.45 1112.51 1141.98 1111.37 1143.43" stroke-linecap="round" />
</g>
		<g transform="matrix(0.19297500200216167 0 0 -0.19297500200216167 49.24268163011044 -16.748158976869234)"  >
<path style="stroke: rgb(196,127,127); stroke-width: 20; stroke-dasharray: none; stroke-linecap: butt; stroke-dashoffset: 0; stroke-linejoin: miter; stroke-miterlimit: 10; fill: none; fill-rule: nonzero; opacity: 1;"  paint-order="stroke"  transform=" translate(-1255.175, -1086.79)" d="M 1236.55 1090.94 C 1249.08 1088.79 1261.62 1085.9 1273.8 1082.64" stroke-linecap="round" />
</g>
		<g transform="matrix(0.19297500200216167 0 0 -0.19297500200216167 51.58829277944676 -23.787887049907994)"  >
<path style="stroke: rgb(196,127,127); stroke-width: 20; stroke-dasharray: none; stroke-linecap: butt; stroke-dashoffset: 0; stroke-linejoin: miter; stroke-miterlimit: 10; fill: none; fill-rule: nonzero; opacity: 1;"  paint-order="stroke"  transform=" translate(-1267.33, -1123.27)" d="M 1227.84 1133.18 C 1245.27 1130.73 1262.6 1126.74 1279.49 1122.14 C 1287.73 1119.96 1296.03 1117.5400000000002 1304.06 1114.3200000000002 C 1304.96 1114.0500000000002 1305.96 1113.7400000000002 1306.82 1113.3600000000001" stroke-linecap="round" />
</g>
		<g transform="matrix(0.19297500200216167 0 0 -0.19297500200216167 50.56070089378534 -31.383383128713035)"  >
<path style="stroke: rgb(196,127,127); stroke-width: 20; stroke-dasharray: none; stroke-linecap: butt; stroke-dashoffset: 0; stroke-linejoin: miter; stroke-miterlimit: 10; fill: none; fill-rule: nonzero; opacity: 1;"  paint-order="stroke"  transform=" translate(-1262.005, -1162.6299999999999)" d="M 1314.24 1152.09 C 1306.6 1155.05 1298.73 1157.23 1290.97 1159.3799999999999 C 1264.49 1166.56 1237.09 1172.6899999999998 1209.77 1173.1699999999998" stroke-linecap="round" />
</g>
		<g transform="matrix(0.19297500200216167 0 0 -0.19297500200216167 47.39784061096981 -39.37287466283516)"  >
<path style="stroke: rgb(196,127,127); stroke-width: 20; stroke-dasharray: none; stroke-linecap: butt; stroke-dashoffset: 0; stroke-linejoin: miter; stroke-miterlimit: 10; fill: none; fill-rule: nonzero; opacity: 1;"  paint-order="stroke"  transform=" translate(-1245.615, -1204.031691676275)" d="M 1311.7 1193.77 C 1304.55 1196.33 1297.28 1198.45 1290.07 1200.43 C 1254.12 1210.16 1216.24 1217.93 1179.53 1212.51" stroke-linecap="round" />
</g>
		<g transform="matrix(0.19297500200216167 0 0 -0.19297500200216167 53.87697630319252 -46.39104903442123)"  >
<path style="stroke: rgb(196,127,127); stroke-width: 20; stroke-dasharray: none; stroke-linecap: butt; stroke-dashoffset: 0; stroke-linejoin: miter; stroke-miterlimit: 10; fill: none; fill-rule: nonzero; opacity: 1;"  paint-order="stroke"  transform=" translate(-1279.19, -1240.3999999999999)" d="M 1286.09 1275.87 C 1280.8 1252.36 1276.2099999999998 1228.75 1272.29 1204.9299999999998" stroke-linecap="round" />
</g>
		<g transform="matrix(0.19297500200216167 0 0 -0.19297500200216167 49.05549587816853 -49.85495032035996)"  >
<path style="stroke: rgb(196,127,127); stroke-width: 20; stroke-dasharray: none; stroke-linecap: butt; stroke-dashoffset: 0; stroke-linejoin: miter; stroke-miterlimit: 10; fill: none; fill-rule: nonzero; opacity: 1;"  paint-order="stroke"  transform=" translate(-1254.2050000000002, -1258.35)" d="M 1263.89 1306.02 C 1256.1200000000001 1274.48 1249.65 1242.79 1244.5200000000002 1210.68" stroke-linecap="round" />
</g>
		<g transform="matrix(0.19297500200216167 0 0 -0.19297500200216167 43.960955825311316 -52.01434059276417)"  >
<path style="stroke: rgb(196,127,127); stroke-width: 20; stroke-dasharray: none; stroke-linecap: butt; stroke-dashoffset: 0; stroke-linejoin: miter; stroke-miterlimit: 10; fill: none; fill-rule: nonzero; opacity: 1;"  paint-order="stroke"  transform=" translate(-1227.8049999999998, -1269.54)" d="M 1239.28 1325.21 C 1229.79 1288.46 1222.12 1251.27 1216.33 1213.8700000000001" stroke-linecap="round" />
</g>
		<g transform="matrix(0.19297500200216167 0 0 -0.19297500200216167 38.5904615195912 -52.974391227724965)"  >
<path style="stroke: rgb(196,127,127); stroke-width: 20; stroke-dasharray: none; stroke-linecap: butt; stroke-dashoffset: 0; stroke-linejoin: miter; stroke-miterlimit: 10; fill: none; fill-rule: nonzero; opacity: 1;"  paint-order="stroke"  transform=" translate(-1199.975, -1274.5149999999999)" d="M 1212.32 1335.59 C 1201.99 1295.31 1193.7 1254.53 1187.6299999999999 1213.4399999999998" stroke-linecap="round" />
</g>
		<g transform="matrix(0.19297500200216167 0 0 -0.19297500200216167 34.82841385555906 -48.29088792913245)"  >
<path style="stroke: rgb(196,127,127); stroke-width: 20; stroke-dasharray: none; stroke-linecap: butt; stroke-dashoffset: 0; stroke-linejoin: miter; stroke-miterlimit: 10; fill: none; fill-rule: nonzero; opacity: 1;"  paint-order="stroke"  transform=" translate(-1180.48, -1250.245)" d="M 1163.12 1228.56 C 1171.7399999999998 1245.06 1183.61 1259.84 1197.84 1271.9299999999998" stroke-linecap="round" />
</g>
		<g transform="matrix(0.19297500200216167 0 0 -0.19297500200216167 33.83845209528806 -54.52012099376233)"  >
<path style="stroke: rgb(196,127,127); stroke-width: 20; stroke-dasharray: none; stroke-linecap: butt; stroke-dashoffset: 0; stroke-linejoin: miter; stroke-miterlimit: 10; fill: none; fill-rule: nonzero; opacity: 1;"  paint-order="stroke"  transform=" translate(-1175.3500000000001, -1282.525)" d="M 1208.14 1318.44 C 1178.68 1303.23 1155.3600000000001 1277.0900000000001 1142.5600000000002 1246.6100000000001" stroke-linecap="round" />
</g>
		<g transform="matrix(0.19297500200216167 0 0 -0.19297500200216167 9.207697663980525 55.80355454469881)"  >
<path style="stroke: rgb(196,127,127); stroke-width: 20; stroke-dasharray: none; stroke-linecap: butt; stroke-dashoffset: 0; stroke-linejoin: miter; stroke-miterlimit: 10; fill: none; fill-rule: nonzero; opacity: 1;"  paint-order="stroke"  transform=" translate(-1047.7129787497988, -710.825689758639)" d="M 1134.36 929.281 C 1056.79 868.25 1016.03 768.16 1012.76 669.52 C 1009.38 566.949 1042.66 464.941 1032.16 362.852 C 1030.5500000000002 347.17999999999995 1023.8000000000001 327.691 1008.0600000000001 327.051 C 992.5630000000001 326.43 986.422 340.65999999999997 986.8750000000001 354.14099999999996 C 987.6880000000001 377.92199999999997 1006.0000000000001 398.51199999999994 1015.2200000000001 419.578 C 1025.9 444.02 1033.89 469.578 1040.2500000000002 495.44899999999996 C 1051.2800000000002 540.2189999999999 1056.4900000000002 586.352 1056.6500000000003 632.43 C 1056.8200000000004 678.6909999999999 1051.9100000000003 724.961 1042.4800000000002 770.2379999999999 C 1036.7000000000003 797.9689999999999 1029.3200000000002 825.3789999999999 1020.2200000000003 852.2109999999999 C 997.3630000000003 919.7299999999999 963.3750000000002 985.4489999999998 961.1210000000002 1056.6999999999998 C 960.6840000000002 1070.6999999999998 962.6480000000003 1086.8999999999999 974.3320000000002 1094.62" stroke-linecap="round" />
</g>
</g>
</g>
<g transform="matrix(1.9211538461538462 0 0 1.9211538461538462 638.5895004834446 728.6697210788193)" id="text-logo-path-group"  >
<g style=""  paint-order="stroke"   >
		<g transform="matrix(1 0 0 1 0 0)" id="text-logo-path-0"  >
<path style="stroke: none; stroke-width: 0; stroke-dasharray: none; stroke-linecap: butt; stroke-dashoffset: 0; stroke-linejoin: miter; stroke-miterlimit: 4; fill: rgb(196,127,127); fill-rule: nonzero; opacity: 1;"  paint-order="stroke"  transform=" translate(-303.775, 19.445)" d="M 1.24 -12.03 L 1.24 -12.03 Q 1.67 -13.96 2.98 -13.96 L 2.98 -13.96 L 3.38 -13.96 Q 5.32 -13.96 5.32 -10.8 L 5.32 -10.8 Q 5.48 -8.59 7.98 -5.91 L 7.98 -5.91 Q 10.42 -3.97 13.27 -3.97 L 13.27 -3.97 Q 18.93 -3.97 21.03 -9.88 L 21.03 -9.88 Q 21.32 -10.96 21.32 -12.03 L 21.32 -12.03 L 21.32 -36.82 Q 21.67 -38.65 23.15 -38.65 L 23.15 -38.65 L 23.47 -38.65 Q 24.95 -38.65 25.3 -36.71 L 25.3 -36.71 L 25.3 -11.92 Q 25.3 -5.51 19.28 -1.64 L 19.28 -1.64 Q 16.46 0 13.48 0 L 13.48 0 L 12.97 0 Q 7.06 0 3.06 -5.72 L 3.06 -5.72 Q 1.24 -8.75 1.24 -12.03 Z M 29.9 -14.42 L 29.9 -14.42 L 29.9 -36.25 Q 30.14 -38.48 31.61 -38.48 L 31.61 -38.48 L 32.02 -38.48 Q 33.84 -38.11 33.84 -36.87 L 33.84 -36.87 L 33.84 -15.23 Q 33.84 -8.24 37.82 -5.88 L 37.82 -5.88 Q 40.32 -3.95 43.4 -3.95 L 43.4 -3.95 Q 49.34 -3.95 52.35 -10.04 L 52.35 -10.04 Q 52.96 -11.95 52.96 -14.02 L 52.96 -14.02 L 52.96 -36.58 Q 53.29 -38.48 54.79 -38.48 L 54.79 -38.48 L 55.09 -38.48 Q 56.91 -38.13 56.91 -36.66 L 56.91 -36.66 L 56.91 -13 Q 56.91 -6.96 51.11 -2.44 L 51.11 -2.44 Q 47.46 0 43.7 0 L 43.7 0 L 43 0 Q 36.69 0 32.02 -6.2 L 32.02 -6.2 Q 29.9 -9.53 29.9 -14.42 Z M 62.69 -5.02 L 62.48 -5.85 Q 62.83 -7.79 64.44 -7.79 L 64.44 -7.79 Q 65.51 -7.79 67.2 -5.64 L 67.2 -5.64 Q 69.73 -3.89 71.82 -3.89 L 71.82 -3.89 L 72.74 -3.89 Q 76.82 -3.89 79.31 -8.51 L 79.31 -8.51 Q 79.72 -10.02 79.72 -10.77 L 79.72 -10.77 L 79.72 -11.79 Q 79.72 -15.84 75.1 -18.37 L 75.1 -18.37 L 69.86 -19.82 Q 64.01 -23.18 64.01 -28.63 L 64.01 -28.63 L 64.01 -29.35 Q 64.01 -34.72 69.75 -37.76 L 69.75 -37.76 Q 71.9 -38.59 73.76 -38.59 L 73.76 -38.59 Q 78.75 -38.59 82.08 -34.08 L 82.08 -34.08 L 82.19 -33.65 L 82.19 -33.03 Q 82.19 -31.72 80.23 -31.39 L 80.23 -31.39 Q 79.42 -31.39 77.46 -33.57 L 77.46 -33.57 Q 75.69 -34.7 74.08 -34.7 L 74.08 -34.7 L 73.46 -34.7 Q 70.08 -34.7 68.33 -31.1 L 68.33 -31.1 Q 67.93 -30.24 67.93 -29.35 L 67.93 -29.35 L 67.93 -28.52 Q 67.93 -24.63 72.63 -22.88 L 72.63 -22.88 Q 76.01 -22.88 79.93 -19.71 L 79.93 -19.71 Q 83.72 -15.87 83.72 -11.28 L 83.72 -11.28 Q 83.72 -5.64 78.89 -2.04 L 78.89 -2.04 Q 75.93 0 72.33 0 L 72.33 0 Q 66.5 0 62.69 -5.02 L 62.69 -5.02 Z M 88.83 -36.63 L 88.83 -36.63 Q 89.26 -38.56 90.55 -38.56 L 90.55 -38.56 L 115.6 -38.56 Q 117.43 -38.22 117.43 -36.74 L 117.43 -36.74 L 117.43 -36.34 Q 117.43 -34.86 115.2 -34.62 L 115.2 -34.62 L 105.1 -34.62 L 105.1 -1.83 Q 105.1 -0.32 103.17 0 L 103.17 0 L 103.09 0 Q 101.53 0 101.15 -2.04 L 101.15 -2.04 L 101.15 -34.62 L 90.87 -34.62 Q 88.83 -35.02 88.83 -36.63 Z M 138.12 -36.63 L 138.12 -36.63 Q 138.55 -38.56 139.84 -38.56 L 139.84 -38.56 L 164.89 -38.56 Q 166.72 -38.22 166.72 -36.74 L 166.72 -36.74 L 166.72 -36.34 Q 166.72 -34.86 164.49 -34.62 L 164.49 -34.62 L 154.39 -34.62 L 154.39 -1.83 Q 154.39 -0.32 152.46 0 L 152.46 0 L 152.38 0 Q 150.82 0 150.44 -2.04 L 150.44 -2.04 L 150.44 -34.62 L 140.16 -34.62 Q 138.12 -35.02 138.12 -36.63 Z M 172.61 -2.04 L 172.61 -2.04 L 172.61 -36.25 Q 172.85 -38.48 174.32 -38.48 L 174.32 -38.48 L 174.73 -38.48 Q 176.55 -38.11 176.55 -36.87 L 176.55 -36.87 L 176.55 -20.81 L 195.67 -20.81 L 195.67 -36.58 Q 196 -38.48 197.5 -38.48 L 197.5 -38.48 L 197.8 -38.48 Q 199.62 -38.13 199.62 -36.66 L 199.62 -36.66 L 199.62 -1.72 Q 199.62 -0.4 197.69 0 L 197.69 0 L 197.58 0 Q 195.67 -0.35 195.67 -1.93 L 195.67 -1.93 L 195.67 -16.97 L 176.55 -16.97 L 176.55 -1.83 Q 176.55 -0.32 174.65 0 L 174.65 0 L 174.54 0 Q 172.98 0 172.61 -2.04 Z M 206.21 -1.93 L 206.21 -1.93 L 206.21 -2.04 Q 206.61 -4 207.95 -4 L 207.95 -4 L 208.57 -4 L 208.57 -34.8 L 208.14 -34.8 Q 206.45 -34.8 206.21 -36.95 L 206.21 -36.95 L 206.21 -37.06 Q 206.21 -38.32 208.14 -38.89 L 208.14 -38.89 L 208.65 -38.81 L 212.46 -38.81 L 212.87 -38.89 Q 214.91 -38.46 214.91 -36.85 L 214.91 -36.85 Q 214.56 -34.8 212.97 -34.8 L 212.97 -34.8 L 212.54 -34.8 L 212.54 -4 L 213.16 -4 Q 214.51 -4 214.91 -2.04 L 214.91 -2.04 L 214.91 -1.93 Q 214.56 0 212.97 0 L 212.97 0 L 208.14 0 Q 206.21 -0.35 206.21 -1.93 Z M 221.47 -2.12 L 221.47 -2.12 L 221.47 -36.2 Q 221.71 -38.43 223.19 -38.43 L 223.19 -38.43 L 223.59 -38.43 Q 224.88 -38.43 225.82 -36.42 L 225.82 -36.42 Q 227.32 -34.72 247.87 -8.19 L 247.87 -8.19 Q 248.08 -8.19 248.08 -7.9 L 248.08 -7.9 L 248.16 -7.79 L 248.27 -7.79 L 248.27 -36.6 Q 248.62 -38.43 250.09 -38.43 L 250.09 -38.43 L 250.39 -38.43 Q 251.89 -38.43 252.22 -36.52 L 252.22 -36.52 L 252.22 -2.01 Q 252.22 -0.35 250.09 0 L 250.09 0 Q 248.94 0 246.55 -3.54 L 246.55 -3.54 L 225.41 -30.53 L 225.41 -1.93 Q 225.41 -0.43 223.48 -0.11 L 223.48 -0.11 L 223.4 -0.11 Q 221.84 -0.11 221.47 -2.12 Z M 258.42 -19.28 L 258.42 -19.28 Q 258.42 -28.98 267.05 -35.31 L 267.05 -35.31 Q 272.34 -38.56 277.3 -38.56 L 277.3 -38.56 Q 283.45 -38.56 288.37 -35.13 L 288.37 -35.13 Q 288.88 -34.43 288.88 -33.81 L 288.88 -33.81 L 288.88 -33.7 Q 288.88 -32.15 286.84 -31.77 L 286.84 -31.77 Q 286.52 -31.77 282.89 -33.49 L 282.89 -33.49 Q 280.53 -34.4 278.32 -34.4 L 278.32 -34.4 L 276.69 -34.4 Q 271.02 -34.4 265.84 -28.92 L 265.84 -28.92 Q 262.48 -24.33 262.48 -19.5 L 262.48 -19.5 L 262.48 -19.09 Q 262.48 -11.2 269.78 -6.2 L 269.78 -6.2 Q 273.6 -4.06 277.41 -4.06 L 277.41 -4.06 L 277.81 -4.06 Q 281.57 -4.06 285.33 -6.1 L 285.33 -6.1 L 285.33 -15.33 L 278 -15.33 Q 276.1 -15.66 276.1 -17.27 L 276.1 -17.27 L 276.1 -17.35 Q 276.42 -19.28 278 -19.28 L 278 -19.28 L 287.46 -19.28 Q 288.96 -19.28 289.28 -17.35 L 289.28 -17.35 L 289.28 -6.1 Q 289.28 -3.63 288.07 -3.03 L 288.07 -3.03 Q 282.89 0 278 0 L 278 0 L 277.41 0 Q 267.88 0 261.46 -8.84 L 261.46 -8.84 Q 258.42 -13.83 258.42 -19.28 Z M 294.5 -5.02 L 294.28 -5.85 Q 294.63 -7.79 296.24 -7.79 L 296.24 -7.79 Q 297.32 -7.79 299.01 -5.64 L 299.01 -5.64 Q 301.53 -3.89 303.63 -3.89 L 303.63 -3.89 L 304.54 -3.89 Q 308.62 -3.89 311.12 -8.51 L 311.12 -8.51 Q 311.52 -10.02 311.52 -10.77 L 311.52 -10.77 L 311.52 -11.79 Q 311.52 -15.84 306.9 -18.37 L 306.9 -18.37 L 301.67 -19.82 Q 295.81 -23.18 295.81 -28.63 L 295.81 -28.63 L 295.81 -29.35 Q 295.81 -34.72 301.56 -37.76 L 301.56 -37.76 Q 303.71 -38.59 305.56 -38.59 L 305.56 -38.59 Q 310.56 -38.59 313.89 -34.08 L 313.89 -34.08 L 313.99 -33.65 L 313.99 -33.03 Q 313.99 -31.72 312.03 -31.39 L 312.03 -31.39 Q 311.23 -31.39 309.27 -33.57 L 309.27 -33.57 Q 307.5 -34.7 305.88 -34.7 L 305.88 -34.7 L 305.27 -34.7 Q 301.88 -34.7 300.14 -31.1 L 300.14 -31.1 Q 299.73 -30.24 299.73 -29.35 L 299.73 -29.35 L 299.73 -28.52 Q 299.73 -24.63 304.43 -22.88 L 304.43 -22.88 Q 307.82 -22.88 311.74 -19.71 L 311.74 -19.71 Q 315.52 -15.87 315.52 -11.28 L 315.52 -11.28 Q 315.52 -5.64 310.69 -2.04 L 310.69 -2.04 Q 307.74 0 304.14 0 L 304.14 0 Q 298.31 0 294.5 -5.02 L 294.5 -5.02 Z M 335.87 -2.04 L 335.87 -2.04 L 335.87 -36.25 Q 336.11 -38.48 337.58 -38.48 L 337.58 -38.48 L 337.99 -38.48 Q 339.81 -38.11 339.81 -36.87 L 339.81 -36.87 L 339.81 -20.81 L 358.93 -20.81 L 358.93 -36.58 Q 359.26 -38.48 360.76 -38.48 L 360.76 -38.48 L 361.06 -38.48 Q 362.88 -38.13 362.88 -36.66 L 362.88 -36.66 L 362.88 -1.72 Q 362.88 -0.4 360.95 0 L 360.95 0 L 360.84 0 Q 358.93 -0.35 358.93 -1.93 L 358.93 -1.93 L 358.93 -16.97 L 339.81 -16.97 L 339.81 -1.83 Q 339.81 -0.32 337.91 0 L 337.91 0 L 337.8 0 Q 336.24 0 335.87 -2.04 Z M 367.86 -1.91 L 367.86 -1.91 L 367.86 -2.01 L 371.29 -11.31 Q 380.29 -34.75 381.07 -37.33 L 381.07 -37.33 Q 381.98 -38.35 382.79 -38.35 L 382.79 -38.35 Q 384.64 -38.35 385.53 -34.62 L 385.53 -34.62 Q 397.72 -2.87 397.83 -2.12 L 397.83 -2.12 L 397.83 -1.83 Q 397.83 -0.32 395.92 0 L 395.92 0 L 395.81 0 Q 394.04 0 393.29 -3.44 L 393.29 -3.44 L 388.75 -15.23 L 376.93 -15.23 L 371.4 -0.62 Q 370.59 0 369.98 0 L 369.98 0 L 369.76 0 Q 367.86 -0.35 367.86 -1.91 Z M 382.79 -30.67 L 378.54 -19.17 L 387.22 -19.17 L 387.22 -19.28 L 382.89 -30.67 L 382.79 -30.67 Z M 402.24 -2.12 L 402.24 -2.12 L 402.24 -36.2 Q 402.48 -38.43 403.95 -38.43 L 403.95 -38.43 L 404.36 -38.43 Q 405.65 -38.43 406.59 -36.42 L 406.59 -36.42 Q 408.09 -34.72 428.63 -8.19 L 428.63 -8.19 Q 428.85 -8.19 428.85 -7.9 L 428.85 -7.9 L 428.93 -7.79 L 429.04 -7.79 L 429.04 -36.6 Q 429.39 -38.43 430.86 -38.43 L 430.86 -38.43 L 431.16 -38.43 Q 432.66 -38.43 432.99 -36.52 L 432.99 -36.52 L 432.99 -2.01 Q 432.99 -0.35 430.86 0 L 430.86 0 Q 429.71 0 427.32 -3.54 L 427.32 -3.54 L 406.18 -30.53 L 406.18 -1.93 Q 406.18 -0.43 404.25 -0.11 L 404.25 -0.11 L 404.17 -0.11 Q 402.61 -0.11 402.24 -2.12 Z M 439.54 -1.93 L 439.54 -1.93 L 439.54 -36.66 Q 439.84 -38.59 441.48 -38.59 L 441.48 -38.59 L 441.48 -38.7 L 441.99 -38.59 L 447.17 -38.59 L 448.3 -38.7 Q 456.97 -38.7 463.36 -31.15 L 463.36 -31.15 Q 467.45 -25.86 467.45 -19.15 L 467.45 -19.15 Q 467.45 -9.91 459.31 -3.57 L 459.31 -3.57 Q 454.15 0 448.41 0 L 448.41 0 L 441.48 0 Q 439.54 -0.35 439.54 -1.93 Z M 443.52 -34.72 L 443.52 -3.97 L 447.9 -3.97 Q 457.59 -3.97 462.26 -13.35 L 462.26 -13.35 Q 463.47 -16.54 463.47 -19.44 L 463.47 -19.44 Q 463.47 -26.45 457.27 -31.66 L 457.27 -31.66 Q 453.43 -34.72 445.85 -34.72 L 445.85 -34.72 L 443.52 -34.72 Z M 473.15 -2.04 L 473.15 -2.04 L 473.15 -36.23 Q 473.39 -38.46 474.86 -38.46 L 474.86 -38.46 L 475.27 -38.46 Q 476.85 -38.46 477.5 -35.83 L 477.5 -35.83 L 490.39 -7.01 Q 490.9 -7.6 499.41 -27.1 L 499.41 -27.1 L 504.4 -37.84 Q 505 -38.46 505.72 -38.46 L 505.72 -38.46 L 506.12 -38.46 Q 507.6 -38.46 507.84 -36.23 L 507.84 -36.23 L 507.84 -2.04 Q 507.47 0 505.91 0 L 505.91 0 L 505.8 0 Q 503.89 -0.32 503.89 -1.83 L 503.89 -1.83 L 503.89 -27.1 L 503.79 -27.1 Q 492.43 -1.32 492.02 -0.7 L 492.02 -0.7 Q 491.25 0 490.49 0 L 490.49 0 Q 488.72 0 487.35 -4.27 L 487.35 -4.27 L 477.2 -26.99 L 477.09 -26.99 L 477.09 -1.83 Q 477.09 -0.32 475.19 0 L 475.19 0 L 475.08 0 Q 473.52 0 473.15 -2.04 Z M 512.92 -1.91 L 512.92 -1.91 L 512.92 -2.01 L 516.36 -11.31 Q 525.36 -34.75 526.14 -37.33 L 526.14 -37.33 Q 527.05 -38.35 527.85 -38.35 L 527.85 -38.35 Q 529.71 -38.35 530.59 -34.62 L 530.59 -34.62 Q 542.79 -2.87 542.89 -2.12 L 542.89 -2.12 L 542.89 -1.83 Q 542.89 -0.32 540.99 0 L 540.99 0 L 540.88 0 Q 539.11 0 538.36 -3.44 L 538.36 -3.44 L 533.82 -15.23 L 522 -15.23 L 516.47 -0.62 Q 515.66 0 515.04 0 L 515.04 0 L 514.83 0 Q 512.92 -0.35 512.92 -1.91 Z M 527.85 -30.67 L 523.61 -19.17 L 532.29 -19.17 L 532.29 -19.28 L 527.96 -30.67 L 527.85 -30.67 Z M 547.76 -1.93 L 547.76 -1.93 L 547.76 -36.66 Q 548.06 -38.59 549.69 -38.59 L 549.69 -38.59 L 549.69 -38.7 L 550.2 -38.59 L 555.39 -38.59 L 556.52 -38.7 Q 565.19 -38.7 571.58 -31.15 L 571.58 -31.15 Q 575.66 -25.86 575.66 -19.15 L 575.66 -19.15 Q 575.66 -9.91 567.53 -3.57 L 567.53 -3.57 Q 562.37 0 556.62 0 L 556.62 0 L 549.69 0 Q 547.76 -0.35 547.76 -1.93 Z M 551.73 -34.72 L 551.73 -3.97 L 556.11 -3.97 Q 565.81 -3.97 570.48 -13.35 L 570.48 -13.35 Q 571.69 -16.54 571.69 -19.44 L 571.69 -19.44 Q 571.69 -26.45 565.48 -31.66 L 565.48 -31.66 Q 561.64 -34.72 554.07 -34.72 L 554.07 -34.72 L 551.73 -34.72 Z M 581.44 -1.93 L 581.44 -1.93 L 581.44 -36.68 Q 581.74 -38.62 583.38 -38.62 L 583.38 -38.62 L 583.38 -38.73 L 583.89 -38.62 L 603.87 -38.62 L 604.27 -38.73 Q 606.02 -38.73 606.31 -36.5 L 606.31 -36.5 Q 605.91 -34.64 604.08 -34.64 L 604.08 -34.64 L 585.42 -34.64 L 585.42 -20.89 L 597.64 -20.89 L 599.09 -21 Q 600.46 -21 600.91 -18.96 L 600.91 -18.96 Q 600.91 -17.62 599.27 -16.92 L 599.27 -16.92 L 597.23 -17.03 L 585.42 -17.03 L 585.42 -3.97 L 604.56 -3.97 Q 605.99 -3.97 606.31 -1.83 L 606.31 -1.83 Q 605.77 0 604.48 0 L 604.48 0 L 583.38 0 Q 581.44 -0.35 581.44 -1.93 Z" stroke-linecap="round" />
</g>
</g>
</g>
<g transform="matrix(1.9211538461538462 0 0 1.9211538461538462 639.6774664164373 840.7993754320307)" id="tagline-0f68f42f-72ee-47a7-ac0e-8cbebc429547-logo-path-group"  >
<g style=""  paint-order="stroke"   >
		<g transform="matrix(1 0 0 1 0 0)" id="tagline-0f68f42f-72ee-47a7-ac0e-8cbebc429547-logo-path-0"  >
<path style="stroke: rgb(255,255,255); stroke-width: 0; stroke-dasharray: none; stroke-linecap: butt; stroke-dashoffset: 0; stroke-linejoin: miter; stroke-miterlimit: 4; fill: rgb(215,167,167); fill-rule: nonzero; opacity: 1;"  paint-order="stroke"  transform=" translate(-271.8, 10.56)" d="M 0.67 -1.11 L 0.67 -1.11 L 0.67 -19.78 Q 0.81 -20.99 1.61 -20.99 L 1.61 -20.99 L 1.83 -20.99 Q 2.83 -20.79 2.83 -20.11 L 2.83 -20.11 L 2.83 -11.35 L 13.26 -11.35 L 13.26 -19.95 Q 13.43 -20.99 14.25 -20.99 L 14.25 -20.99 L 14.41 -20.99 Q 15.41 -20.8 15.41 -20 L 15.41 -20 L 15.41 -0.94 Q 15.41 -0.22 14.36 0 L 14.36 0 L 14.3 0 Q 13.26 -0.19 13.26 -1.05 L 13.26 -1.05 L 13.26 -9.26 L 2.83 -9.26 L 2.83 -1 Q 2.83 -0.18 1.79 0 L 1.79 0 L 1.73 0 Q 0.88 0 0.67 -1.11 Z M 17.99 -7.54 L 17.99 -7.54 Q 17.99 -11.72 22.09 -14.17 L 22.09 -14.17 Q 23.83 -14.99 25.49 -14.99 L 25.49 -14.99 Q 29.74 -14.99 32.21 -10.83 L 32.21 -10.83 Q 32.97 -9.14 32.97 -7.32 L 32.97 -7.32 L 32.97 -0.98 Q 32.97 -0.18 31.93 0 L 31.93 0 L 31.88 0 Q 31.17 0 30.83 -0.82 L 30.83 -0.82 L 30.83 -0.88 L 30.89 -2.24 L 30.89 -2.3 Q 28.48 0 25.69 0 L 25.69 0 L 25.27 0 Q 21.46 0 18.91 -3.82 L 18.91 -3.82 Q 17.99 -5.67 17.99 -7.54 Z M 20.13 -7.6 L 20.13 -7.44 Q 20.13 -4.17 23.41 -2.52 L 23.41 -2.52 Q 24.45 -2.14 25.27 -2.14 L 25.27 -2.14 L 25.69 -2.14 Q 28.42 -2.14 30.19 -4.86 L 30.19 -4.86 Q 30.83 -6.15 30.83 -7.32 L 30.83 -7.32 L 30.83 -7.54 Q 30.83 -10.69 27.73 -12.36 L 27.73 -12.36 Q 26.65 -12.85 25.49 -12.85 L 25.49 -12.85 L 25.43 -12.85 Q 22.12 -12.85 20.45 -9.4 L 20.45 -9.4 Q 20.13 -8.33 20.13 -7.6 L 20.13 -7.6 Z M 36.08 -1.1 L 36.08 -1.1 L 36.08 -13.73 Q 36.21 -14.99 37.18 -14.99 L 37.18 -14.99 Q 38.22 -14.72 38.22 -14.05 L 38.22 -14.05 L 38.22 -12.85 Q 40.59 -14.99 43.4 -14.99 L 43.4 -14.99 Q 46.49 -14.99 48.88 -12.41 L 48.88 -12.41 Q 50.63 -10.25 50.63 -7.88 L 50.63 -7.88 L 50.63 -0.92 Q 50.63 -0.21 49.58 0 L 49.58 0 L 49.53 0 Q 48.49 -0.19 48.49 -1.04 L 48.49 -1.04 L 48.49 -7.16 Q 48.49 -11.28 44.94 -12.58 L 44.94 -12.58 Q 44.08 -12.8 43.4 -12.8 L 43.4 -12.8 L 43.24 -12.8 Q 40.27 -12.8 38.64 -9.73 L 38.64 -9.73 Q 38.22 -8.79 38.22 -6.72 L 38.22 -6.72 L 38.22 -0.98 Q 38.22 -0.18 37.18 0 L 37.18 0 L 37.12 0 Q 36.28 0 36.08 -1.1 Z M 52.97 -7.59 L 52.97 -7.59 Q 52.97 -11.26 56.24 -13.78 L 56.24 -13.78 Q 58.32 -15.16 60.56 -15.16 L 60.56 -15.16 Q 63.44 -15.16 65.98 -12.89 L 65.98 -12.89 L 65.98 -19.15 L 65.92 -20.02 Q 66.23 -20.98 66.86 -20.98 L 66.86 -20.98 L 67.08 -20.98 Q 68.07 -20.77 68.07 -20.08 L 68.07 -20.08 L 68.07 -9.13 L 68.13 -7.25 Q 68.13 -5.08 66.36 -2.71 L 66.36 -2.71 Q 63.85 0 60.72 0 L 60.72 0 L 60.28 0 Q 57.22 0 54.58 -2.87 L 54.58 -2.87 Q 52.97 -5.16 52.97 -7.59 Z M 55.12 -7.75 L 55.12 -7.47 Q 55.12 -4.09 58.67 -2.43 L 58.67 -2.43 Q 59.62 -2.15 60.38 -2.15 L 60.38 -2.15 L 60.72 -2.15 Q 64.01 -2.15 65.7 -5.7 L 65.7 -5.7 Q 65.98 -6.77 65.98 -7.35 L 65.98 -7.35 L 65.98 -7.69 Q 65.98 -11.06 62.37 -12.73 L 62.37 -12.73 Q 61.27 -13.01 60.66 -13.01 L 60.66 -13.01 L 60.44 -13.01 Q 57.14 -13.01 55.46 -9.52 L 55.46 -9.52 Q 55.12 -8.54 55.12 -7.75 L 55.12 -7.75 Z M 70.99 -1.07 L 70.99 -1.07 L 70.99 -13.51 Q 71.1 -14.74 72.06 -14.74 L 72.06 -14.74 Q 73.08 -14.47 73.08 -13.83 L 73.08 -13.83 L 73.08 -13.29 Q 74.87 -14.74 76.96 -14.74 L 76.96 -14.74 Q 79.75 -14.74 81.86 -12.16 L 81.86 -12.16 Q 82.72 -13.75 85.4 -14.58 L 85.4 -14.58 L 86.63 -14.74 Q 90 -14.74 91.96 -11.51 L 91.96 -11.51 Q 92.61 -10.17 92.61 -8.94 L 92.61 -8.94 L 92.61 -0.91 Q 92.61 -0.21 91.58 0 L 91.58 0 L 91.54 0 Q 90.51 -0.18 90.51 -1.03 L 90.51 -1.03 L 90.51 -8.82 Q 90.51 -11.47 87.71 -12.48 L 87.71 -12.48 L 86.97 -12.58 L 86.43 -12.58 Q 84.2 -12.58 83.03 -10 L 83.03 -10 Q 82.87 -9.43 82.87 -9.04 L 82.87 -9.04 L 82.87 -1.07 Q 82.68 0 81.86 0 L 81.86 0 L 81.8 0 Q 80.77 -0.18 80.77 -0.97 L 80.77 -0.97 L 80.77 -7.59 Q 80.77 -10.34 80.02 -11.03 L 80.02 -11.03 Q 78.87 -12.58 77.01 -12.58 L 77.01 -12.58 L 76.85 -12.58 Q 74.28 -12.58 73.24 -9.84 L 73.24 -9.84 Q 73.08 -9.18 73.08 -8.12 L 73.08 -8.12 L 73.08 -0.97 Q 73.08 -0.18 72.06 0 L 72.06 0 L 72.01 0 Q 71.19 0 70.99 -1.07 Z M 95.2 -7.54 L 95.2 -7.54 Q 95.2 -11.72 99.3 -14.17 L 99.3 -14.17 Q 101.04 -14.99 102.7 -14.99 L 102.7 -14.99 Q 106.95 -14.99 109.42 -10.83 L 109.42 -10.83 Q 110.19 -9.14 110.19 -7.32 L 110.19 -7.32 L 110.19 -0.98 Q 110.19 -0.18 109.15 0 L 109.15 0 L 109.09 0 Q 108.38 0 108.05 -0.82 L 108.05 -0.82 L 108.05 -0.88 L 108.11 -2.24 L 108.11 -2.3 Q 105.69 0 102.91 0 L 102.91 0 L 102.48 0 Q 98.67 0 96.12 -3.82 L 96.12 -3.82 Q 95.2 -5.67 95.2 -7.54 Z M 97.34 -7.6 L 97.34 -7.44 Q 97.34 -4.17 100.62 -2.52 L 100.62 -2.52 Q 101.66 -2.14 102.48 -2.14 L 102.48 -2.14 L 102.91 -2.14 Q 105.63 -2.14 107.4 -4.86 L 107.4 -4.86 Q 108.05 -6.15 108.05 -7.32 L 108.05 -7.32 L 108.05 -7.54 Q 108.05 -10.69 104.94 -12.36 L 104.94 -12.36 Q 103.86 -12.85 102.7 -12.85 L 102.7 -12.85 L 102.64 -12.85 Q 99.33 -12.85 97.66 -9.4 L 97.66 -9.4 Q 97.34 -8.33 97.34 -7.6 L 97.34 -7.6 Z M 112.65 -7.59 L 112.65 -7.59 Q 112.65 -11.26 115.91 -13.78 L 115.91 -13.78 Q 117.99 -15.16 120.23 -15.16 L 120.23 -15.16 Q 123.12 -15.16 125.65 -12.89 L 125.65 -12.89 L 125.65 -19.15 L 125.6 -20.02 Q 125.9 -20.98 126.53 -20.98 L 126.53 -20.98 L 126.75 -20.98 Q 127.75 -20.77 127.75 -20.08 L 127.75 -20.08 L 127.75 -9.13 L 127.81 -7.25 Q 127.81 -5.08 126.04 -2.71 L 126.04 -2.71 Q 123.53 0 120.4 0 L 120.4 0 L 119.96 0 Q 116.89 0 114.26 -2.87 L 114.26 -2.87 Q 112.65 -5.16 112.65 -7.59 Z M 114.8 -7.75 L 114.8 -7.47 Q 114.8 -4.09 118.34 -2.43 L 118.34 -2.43 Q 119.3 -2.15 120.06 -2.15 L 120.06 -2.15 L 120.4 -2.15 Q 123.69 -2.15 125.38 -5.7 L 125.38 -5.7 Q 125.65 -6.77 125.65 -7.35 L 125.65 -7.35 L 125.65 -7.69 Q 125.65 -11.06 122.05 -12.73 L 122.05 -12.73 Q 120.95 -13.01 120.34 -13.01 L 120.34 -13.01 L 120.12 -13.01 Q 116.82 -13.01 115.14 -9.52 L 115.14 -9.52 Q 114.8 -8.54 114.8 -7.75 L 114.8 -7.75 Z M 130.22 -7.51 L 130.22 -7.51 Q 130.22 -11.63 134.12 -14.08 L 134.12 -14.08 Q 136.01 -15.01 137.68 -15.01 L 137.68 -15.01 Q 142.02 -15.01 144.42 -10.9 L 144.42 -10.9 Q 145.24 -9.29 145.24 -7.4 L 145.24 -7.4 L 145.24 -7.12 Q 145.05 -6.02 144.2 -6.02 L 144.2 -6.02 L 132.64 -6.02 Q 133.29 -3.84 135.42 -2.68 L 135.42 -2.68 Q 136.68 -2.2 137.78 -2.2 L 137.78 -2.2 Q 139.06 -2.2 140.7 -3.02 L 140.7 -3.02 L 141.02 -3.02 Q 142 -2.83 142 -2.02 L 142 -2.02 L 142 -1.86 Q 142 -0.51 138.06 0 L 138.06 0 L 137.68 0 Q 133.64 0 131.21 -3.78 L 131.21 -3.78 Q 130.22 -5.57 130.22 -7.51 Z M 132.47 -8.16 L 132.47 -8.16 L 143 -8.16 Q 143 -9.29 141.68 -11.07 L 141.68 -11.07 Q 139.88 -12.77 138.12 -12.77 L 138.12 -12.77 L 137.52 -12.77 Q 134.88 -12.77 133.18 -10.2 L 133.18 -10.2 Q 132.6 -9.17 132.47 -8.16 Z M 155.17 -10.52 L 155.17 -10.52 Q 155.17 -15.98 160.15 -19.42 L 160.15 -19.42 Q 162.82 -21.04 165.63 -21.04 L 165.63 -21.04 Q 168.9 -21.04 171.72 -19.04 L 171.72 -19.04 Q 171.94 -18.62 171.94 -18.38 L 171.94 -18.38 L 171.94 -18.27 Q 171.94 -17.33 170.79 -17.21 L 170.79 -17.21 L 170.73 -17.21 L 168.79 -18.21 Q 166.86 -18.82 165.63 -18.82 L 165.63 -18.82 Q 161.69 -18.82 158.82 -15.22 L 158.82 -15.22 Q 157.38 -12.8 157.38 -10.52 L 157.38 -10.52 Q 157.38 -5.9 161.7 -3.21 L 161.7 -3.21 Q 163.62 -2.21 165.53 -2.21 L 165.53 -2.21 L 165.69 -2.21 Q 168.12 -2.21 170.61 -3.76 L 170.61 -3.76 L 170.95 -3.76 Q 171.94 -3.54 171.94 -2.77 L 171.94 -2.77 L 171.94 -2.61 Q 171.94 -1.44 168.24 -0.34 L 168.24 -0.34 Q 167.08 0 165.81 0 L 165.81 0 L 165.53 0 Q 160.33 0 156.83 -4.82 L 156.83 -4.82 Q 155.17 -7.6 155.17 -10.52 Z M 175.66 -1.1 L 175.66 -1.1 L 175.66 -13.83 Q 175.8 -15.1 176.76 -15.1 L 176.76 -15.1 Q 177.82 -14.84 177.82 -14.17 L 177.82 -14.17 L 177.82 -12.95 Q 180.23 -15.1 182.99 -15.1 L 182.99 -15.1 Q 184.47 -15.1 186.14 -14.38 L 186.14 -14.38 Q 186.58 -13.93 186.58 -13.51 L 186.58 -13.51 L 186.58 -13.45 Q 186.4 -12.41 185.54 -12.41 L 185.54 -12.41 L 185.48 -12.41 Q 183.97 -12.89 183.21 -12.89 L 183.21 -12.89 L 182.89 -12.89 Q 179.65 -12.89 178.14 -9.54 L 178.14 -9.54 Q 177.82 -8.64 177.82 -7.5 L 177.82 -7.5 L 177.82 -1 Q 177.82 -0.18 176.76 0 L 176.76 0 L 176.7 0 Q 175.87 0 175.66 -1.1 Z M 188.38 -7.54 L 188.38 -7.54 Q 188.38 -11.72 192.48 -14.17 L 192.48 -14.17 Q 194.22 -14.99 195.88 -14.99 L 195.88 -14.99 Q 200.13 -14.99 202.6 -10.83 L 202.6 -10.83 Q 203.36 -9.14 203.36 -7.32 L 203.36 -7.32 L 203.36 -0.98 Q 203.36 -0.18 202.32 0 L 202.32 0 L 202.27 0 Q 201.56 0 201.23 -0.82 L 201.23 -0.82 L 201.23 -0.88 L 201.28 -2.24 L 201.28 -2.3 Q 198.87 0 196.08 0 L 196.08 0 L 195.66 0 Q 191.85 0 189.3 -3.82 L 189.3 -3.82 Q 188.38 -5.67 188.38 -7.54 Z M 190.52 -7.6 L 190.52 -7.44 Q 190.52 -4.17 193.8 -2.52 L 193.8 -2.52 Q 194.84 -2.14 195.66 -2.14 L 195.66 -2.14 L 196.08 -2.14 Q 198.81 -2.14 200.58 -4.86 L 200.58 -4.86 Q 201.23 -6.15 201.23 -7.32 L 201.23 -7.32 L 201.23 -7.54 Q 201.23 -10.69 198.12 -12.36 L 198.12 -12.36 Q 197.04 -12.85 195.88 -12.85 L 195.88 -12.85 L 195.82 -12.85 Q 192.51 -12.85 190.84 -9.4 L 190.84 -9.4 Q 190.52 -8.33 190.52 -7.6 L 190.52 -7.6 Z M 205.75 -13.77 L 205.75 -13.77 Q 205.75 -14.33 206.65 -14.77 L 206.65 -14.77 L 207.74 -14.72 L 209.53 -14.72 L 209.53 -15.72 Q 209.53 -19.44 212.8 -20.82 L 212.8 -20.82 L 214.09 -21.05 L 215.42 -21.05 Q 216.18 -21.05 216.36 -19.88 L 216.36 -19.88 Q 216.36 -19.13 215.24 -18.88 L 215.24 -18.88 L 214.41 -18.88 Q 212.39 -18.88 211.74 -16.66 L 211.74 -16.66 L 211.7 -15.5 L 211.7 -14.72 L 214.09 -14.72 L 214.97 -14.77 Q 215.67 -14.77 215.92 -13.71 L 215.92 -13.71 L 215.92 -13.55 Q 215.92 -12.85 214.91 -12.6 L 214.91 -12.6 L 211.7 -12.6 L 211.7 -1.61 L 211.74 -1 Q 211.74 -0.25 210.64 0 L 210.64 0 Q 209.88 0 209.53 -0.94 L 209.53 -0.94 L 209.59 -1.61 L 209.59 -12.6 L 206.69 -12.6 Q 205.93 -12.6 205.75 -13.77 Z M 218.2 -13.64 L 218.2 -13.64 Q 218.38 -14.66 219.17 -14.66 L 219.17 -14.66 L 219.17 -14.72 L 219.71 -14.66 L 221.04 -14.66 L 221.04 -19.17 Q 221.18 -20.36 221.97 -20.36 L 221.97 -20.36 L 222.17 -20.36 Q 223.14 -20.16 223.14 -19.5 L 223.14 -19.5 L 223.14 -14.66 L 225.35 -14.66 L 225.83 -14.72 Q 226.58 -14.72 226.85 -13.64 L 226.85 -13.64 Q 226.85 -12.91 225.94 -12.57 L 225.94 -12.57 L 225.13 -12.63 L 223.14 -12.63 L 223.14 -4.73 Q 223.14 -2.67 224.49 -2.2 L 224.49 -2.2 L 225.72 -2.09 L 226.32 -2.09 Q 227.02 -2.09 227.23 -1.07 L 227.23 -1.07 L 227.23 -1.03 Q 227.05 0 226.2 0 L 226.2 0 L 225.07 0 Q 222.51 0 221.26 -2.8 L 221.26 -2.8 Q 221.04 -3.49 221.04 -4.41 L 221.04 -4.41 L 221.04 -12.63 L 219.98 -12.63 L 219.11 -12.57 Q 218.2 -12.89 218.2 -13.64 Z M 228.62 -10.08 L 228.62 -10.08 Q 228.62 -12.13 231.59 -14.03 L 231.59 -14.03 Q 233.23 -14.9 234.84 -14.9 L 234.84 -14.9 Q 238.61 -14.9 240.76 -11.48 L 240.76 -11.48 L 240.81 -11.06 L 240.81 -11 Q 240.81 -10.14 239.72 -9.98 L 239.72 -9.98 Q 239 -9.98 238.26 -11.22 L 238.26 -11.22 Q 236.75 -12.69 234.84 -12.69 L 234.84 -12.69 Q 232.34 -12.69 230.89 -10.3 L 230.89 -10.3 L 230.84 -10.02 Q 230.84 -9.3 232.47 -9.16 L 232.47 -9.16 Q 238.71 -7.65 239.3 -7.43 L 239.3 -7.43 Q 240.86 -6.4 240.86 -4.82 L 240.86 -4.82 L 240.86 -4.78 Q 240.86 -2.52 237.55 -0.64 L 237.55 -0.64 Q 236.13 0 234.52 0 L 234.52 0 Q 231.23 0 228.94 -3.09 L 228.94 -3.09 Q 228.72 -3.41 228.72 -3.69 L 228.72 -3.69 L 228.72 -4.01 Q 228.72 -4.8 229.92 -4.94 L 229.92 -4.94 Q 230.43 -4.94 231.39 -3.57 L 231.39 -3.57 Q 232.84 -2.23 234.74 -2.23 L 234.74 -2.23 Q 237.03 -2.23 238.54 -4.39 L 238.54 -4.39 L 238.64 -4.72 L 238.64 -4.78 Q 238.64 -5.48 237.67 -5.58 L 237.67 -5.58 Q 230.39 -7.21 229.97 -7.59 L 229.97 -7.59 Q 228.62 -8.61 228.62 -10.08 Z M 250.83 -1.11 L 250.83 -1.11 L 250.83 -19.76 Q 250.96 -20.98 251.76 -20.98 L 251.76 -20.98 L 251.98 -20.98 Q 252.85 -20.98 253.2 -19.54 L 253.2 -19.54 L 260.23 -3.82 Q 260.51 -4.15 265.15 -14.78 L 265.15 -14.78 L 267.88 -20.64 Q 268.2 -20.98 268.59 -20.98 L 268.59 -20.98 L 268.81 -20.98 Q 269.62 -20.98 269.75 -19.76 L 269.75 -19.76 L 269.75 -1.11 Q 269.55 0 268.7 0 L 268.7 0 L 268.64 0 Q 267.6 -0.18 267.6 -1 L 267.6 -1 L 267.6 -14.78 L 267.54 -14.78 Q 261.34 -0.72 261.12 -0.38 L 261.12 -0.38 Q 260.7 0 260.29 0 L 260.29 0 Q 259.32 0 258.57 -2.33 L 258.57 -2.33 L 253.04 -14.72 L 252.98 -14.72 L 252.98 -1 Q 252.98 -0.18 251.94 0 L 251.94 0 L 251.88 0 Q 251.03 0 250.83 -1.11 Z M 272.39 -7.54 L 272.39 -7.54 Q 272.39 -11.72 276.49 -14.17 L 276.49 -14.17 Q 278.23 -14.99 279.89 -14.99 L 279.89 -14.99 Q 284.14 -14.99 286.61 -10.83 L 286.61 -10.83 Q 287.37 -9.14 287.37 -7.32 L 287.37 -7.32 L 287.37 -0.98 Q 287.37 -0.18 286.33 0 L 286.33 0 L 286.27 0 Q 285.57 0 285.23 -0.82 L 285.23 -0.82 L 285.23 -0.88 L 285.29 -2.24 L 285.29 -2.3 Q 282.88 0 280.09 0 L 280.09 0 L 279.67 0 Q 275.86 0 273.31 -3.82 L 273.31 -3.82 Q 272.39 -5.67 272.39 -7.54 Z M 274.53 -7.6 L 274.53 -7.44 Q 274.53 -4.17 277.81 -2.52 L 277.81 -2.52 Q 278.85 -2.14 279.67 -2.14 L 279.67 -2.14 L 280.09 -2.14 Q 282.82 -2.14 284.59 -4.86 L 284.59 -4.86 Q 285.23 -6.15 285.23 -7.32 L 285.23 -7.32 L 285.23 -7.54 Q 285.23 -10.69 282.13 -12.36 L 282.13 -12.36 Q 281.04 -12.85 279.89 -12.85 L 279.89 -12.85 L 279.83 -12.85 Q 276.52 -12.85 274.85 -9.4 L 274.85 -9.4 Q 274.53 -8.33 274.53 -7.6 L 274.53 -7.6 Z M 289.83 -7.59 L 289.83 -7.59 Q 289.83 -11.26 293.1 -13.78 L 293.1 -13.78 Q 295.18 -15.16 297.42 -15.16 L 297.42 -15.16 Q 300.31 -15.16 302.84 -12.89 L 302.84 -12.89 L 302.84 -19.15 L 302.78 -20.02 Q 303.09 -20.98 303.72 -20.98 L 303.72 -20.98 L 303.94 -20.98 Q 304.94 -20.77 304.94 -20.08 L 304.94 -20.08 L 304.94 -9.13 L 305 -7.25 Q 305 -5.08 303.22 -2.71 L 303.22 -2.71 Q 300.72 0 297.58 0 L 297.58 0 L 297.14 0 Q 294.08 0 291.45 -2.87 L 291.45 -2.87 Q 289.83 -5.16 289.83 -7.59 Z M 291.99 -7.75 L 291.99 -7.47 Q 291.99 -4.09 295.53 -2.43 L 295.53 -2.43 Q 296.48 -2.15 297.25 -2.15 L 297.25 -2.15 L 297.58 -2.15 Q 300.88 -2.15 302.56 -5.7 L 302.56 -5.7 Q 302.84 -6.77 302.84 -7.35 L 302.84 -7.35 L 302.84 -7.69 Q 302.84 -11.06 299.24 -12.73 L 299.24 -12.73 Q 298.14 -13.01 297.52 -13.01 L 297.52 -13.01 L 297.3 -13.01 Q 294.01 -13.01 292.32 -9.52 L 292.32 -9.52 Q 291.99 -8.54 291.99 -7.75 L 291.99 -7.75 Z M 307.41 -7.51 L 307.41 -7.51 Q 307.41 -11.63 311.31 -14.08 L 311.31 -14.08 Q 313.2 -15.01 314.87 -15.01 L 314.87 -15.01 Q 319.2 -15.01 321.61 -10.9 L 321.61 -10.9 Q 322.43 -9.29 322.43 -7.4 L 322.43 -7.4 L 322.43 -7.12 Q 322.24 -6.02 321.39 -6.02 L 321.39 -6.02 L 309.83 -6.02 Q 310.47 -3.84 312.61 -2.68 L 312.61 -2.68 Q 313.87 -2.2 314.97 -2.2 L 314.97 -2.2 Q 316.25 -2.2 317.89 -3.02 L 317.89 -3.02 L 318.21 -3.02 Q 319.19 -2.83 319.19 -2.02 L 319.19 -2.02 L 319.19 -1.86 Q 319.19 -0.51 315.25 0 L 315.25 0 L 314.87 0 Q 310.83 0 308.39 -3.78 L 308.39 -3.78 Q 307.41 -5.57 307.41 -7.51 Z M 309.65 -8.16 L 309.65 -8.16 L 320.19 -8.16 Q 320.19 -9.29 318.87 -11.07 L 318.87 -11.07 Q 317.07 -12.77 315.31 -12.77 L 315.31 -12.77 L 314.71 -12.77 Q 312.07 -12.77 310.37 -10.2 L 310.37 -10.2 Q 309.79 -9.17 309.65 -8.16 Z M 332.24 -1.05 L 332.24 -1.05 L 332.24 -20.01 Q 332.4 -21.06 333.3 -21.06 L 333.3 -21.06 L 333.3 -21.12 L 333.57 -21.06 L 344.47 -21.06 L 344.69 -21.12 Q 345.64 -21.12 345.81 -19.91 L 345.81 -19.91 Q 345.59 -18.9 344.59 -18.9 L 344.59 -18.9 L 334.41 -18.9 L 334.41 -11.4 L 341.07 -11.4 L 341.87 -11.46 Q 342.61 -11.46 342.86 -10.34 L 342.86 -10.34 Q 342.86 -9.61 341.97 -9.23 L 341.97 -9.23 L 340.85 -9.29 L 334.41 -9.29 L 334.41 -1.39 L 334.47 -1.05 Q 334.22 0 333.41 0 L 333.41 0 L 333.3 0 Q 332.24 -0.19 332.24 -1.05 Z M 347.99 -1.1 L 347.99 -1.1 L 347.99 -13.83 Q 348.12 -15.1 349.09 -15.1 L 349.09 -15.1 Q 350.14 -14.84 350.14 -14.17 L 350.14 -14.17 L 350.14 -12.95 Q 352.56 -15.1 355.31 -15.1 L 355.31 -15.1 Q 356.79 -15.1 358.46 -14.38 L 358.46 -14.38 Q 358.9 -13.93 358.9 -13.51 L 358.9 -13.51 L 358.9 -13.45 Q 358.73 -12.41 357.86 -12.41 L 357.86 -12.41 L 357.8 -12.41 Q 356.29 -12.89 355.53 -12.89 L 355.53 -12.89 L 355.21 -12.89 Q 351.97 -12.89 350.46 -9.54 L 350.46 -9.54 Q 350.14 -8.64 350.14 -7.5 L 350.14 -7.5 L 350.14 -1 Q 350.14 -0.18 349.09 0 L 349.09 0 L 349.03 0 Q 348.19 0 347.99 -1.1 Z M 360.64 -7.46 L 360.64 -7.46 Q 360.64 -11.09 363.85 -13.55 L 363.85 -13.55 Q 365.9 -14.91 368.1 -14.91 L 368.1 -14.91 Q 370.99 -14.91 373.33 -12.73 L 373.33 -12.73 Q 375.56 -10.39 375.56 -7.46 L 375.56 -7.46 Q 375.56 -3.27 371.59 -0.86 L 371.59 -0.86 Q 369.87 0 368.26 0 L 368.26 0 L 367.82 0 Q 364.82 0 362.23 -2.83 L 362.23 -2.83 Q 360.64 -5.07 360.64 -7.46 Z M 362.83 -7.62 L 362.83 -7.35 Q 362.83 -4.37 365.71 -2.72 L 365.71 -2.72 Q 366.75 -2.18 367.94 -2.18 L 367.94 -2.18 L 368.26 -2.18 Q 371.35 -2.18 372.99 -5.39 L 372.99 -5.39 Q 373.37 -6.4 373.37 -7.35 L 373.37 -7.35 L 373.37 -7.62 Q 373.37 -10.11 371.09 -11.81 L 371.09 -11.81 Q 369.76 -12.73 368.04 -12.73 L 368.04 -12.73 Q 364.66 -12.73 363.09 -9.2 L 363.09 -9.2 Q 362.83 -8.33 362.83 -7.62 L 362.83 -7.62 Z M 378.16 -1.07 L 378.16 -1.07 L 378.16 -13.51 Q 378.28 -14.74 379.23 -14.74 L 379.23 -14.74 Q 380.26 -14.47 380.26 -13.83 L 380.26 -13.83 L 380.26 -13.29 Q 382.05 -14.74 384.14 -14.74 L 384.14 -14.74 Q 386.92 -14.74 389.03 -12.16 L 389.03 -12.16 Q 389.9 -13.75 392.58 -14.58 L 392.58 -14.58 L 393.81 -14.74 Q 397.18 -14.74 399.14 -11.51 L 399.14 -11.51 Q 399.79 -10.17 399.79 -8.94 L 399.79 -8.94 L 399.79 -0.91 Q 399.79 -0.21 398.76 0 L 398.76 0 L 398.72 0 Q 397.69 -0.18 397.69 -1.03 L 397.69 -1.03 L 397.69 -8.82 Q 397.69 -11.47 394.89 -12.48 L 394.89 -12.48 L 394.15 -12.58 L 393.6 -12.58 Q 391.38 -12.58 390.21 -10 L 390.21 -10 Q 390.04 -9.43 390.04 -9.04 L 390.04 -9.04 L 390.04 -1.07 Q 389.85 0 389.03 0 L 389.03 0 L 388.97 0 Q 387.95 -0.18 387.95 -0.97 L 387.95 -0.97 L 387.95 -7.59 Q 387.95 -10.34 387.2 -11.03 L 387.2 -11.03 Q 386.04 -12.58 384.18 -12.58 L 384.18 -12.58 L 384.02 -12.58 Q 381.46 -12.58 380.42 -9.84 L 380.42 -9.84 Q 380.26 -9.18 380.26 -8.12 L 380.26 -8.12 L 380.26 -0.97 Q 380.26 -0.18 379.23 0 L 379.23 0 L 379.19 0 Q 378.37 0 378.16 -1.07 Z M 409.76 -19.98 L 409.76 -19.98 Q 410 -21.04 410.7 -21.04 L 410.7 -21.04 L 424.37 -21.04 Q 425.36 -20.84 425.36 -20.04 L 425.36 -20.04 L 425.36 -19.82 Q 425.36 -19.01 424.15 -18.88 L 424.15 -18.88 L 418.64 -18.88 L 418.64 -1 Q 418.64 -0.18 417.58 0 L 417.58 0 L 417.54 0 Q 416.69 0 416.48 -1.11 L 416.48 -1.11 L 416.48 -18.88 L 410.87 -18.88 Q 409.76 -19.1 409.76 -19.98 Z M 428.22 -1 L 428.22 -1 L 428.22 -19.91 Q 428.44 -20.95 429.16 -20.95 L 429.16 -20.95 L 429.38 -20.95 Q 430.37 -20.74 430.37 -20.07 L 430.37 -20.07 L 430.37 -13.32 Q 432.5 -15.15 434.91 -15.15 L 434.91 -15.15 Q 438.6 -15.15 440.82 -11.66 L 440.82 -11.66 Q 441.65 -10.11 441.65 -8.73 L 441.65 -8.73 L 441.65 -1 Q 441.65 -0.18 440.6 0 L 440.6 0 L 440.55 0 Q 439.76 0 439.5 -1 L 439.5 -1 L 439.5 -8.41 Q 439.5 -11.4 436.41 -12.71 L 436.41 -12.71 Q 435.66 -12.93 434.91 -12.93 L 434.91 -12.93 Q 431.84 -12.93 430.59 -9.67 L 430.59 -9.67 Q 430.37 -8.96 430.37 -7.35 L 430.37 -7.35 L 430.37 -1 Q 430.37 -0.18 429.32 0 L 429.32 0 L 429.27 0 Q 428.48 0 428.22 -1 Z M 444.13 -7.51 L 444.13 -7.51 Q 444.13 -11.63 448.02 -14.08 L 448.02 -14.08 Q 449.91 -15.01 451.58 -15.01 L 451.58 -15.01 Q 455.92 -15.01 458.32 -10.9 L 458.32 -10.9 Q 459.14 -9.29 459.14 -7.4 L 459.14 -7.4 L 459.14 -7.12 Q 458.95 -6.02 458.1 -6.02 L 458.1 -6.02 L 446.54 -6.02 Q 447.19 -3.84 449.33 -2.68 L 449.33 -2.68 Q 450.59 -2.2 451.68 -2.2 L 451.68 -2.2 Q 452.96 -2.2 454.6 -3.02 L 454.6 -3.02 L 454.92 -3.02 Q 455.9 -2.83 455.9 -2.02 L 455.9 -2.02 L 455.9 -1.86 Q 455.9 -0.51 451.96 0 L 451.96 0 L 451.58 0 Q 447.54 0 445.11 -3.78 L 445.11 -3.78 Q 444.13 -5.57 444.13 -7.51 Z M 446.37 -8.16 L 446.37 -8.16 L 456.9 -8.16 Q 456.9 -9.29 455.58 -11.07 L 455.58 -11.07 Q 453.78 -12.77 452.02 -12.77 L 452.02 -12.77 L 451.42 -12.77 Q 448.78 -12.77 447.08 -10.2 L 447.08 -10.2 Q 446.5 -9.17 446.37 -8.16 Z M 468.82 -1.11 L 468.82 -1.11 L 468.82 -19.78 Q 468.96 -20.99 469.76 -20.99 L 469.76 -20.99 L 469.98 -20.99 Q 470.98 -20.79 470.98 -20.11 L 470.98 -20.11 L 470.98 -11.35 L 481.41 -11.35 L 481.41 -19.95 Q 481.58 -20.99 482.4 -20.99 L 482.4 -20.99 L 482.56 -20.99 Q 483.56 -20.8 483.56 -20 L 483.56 -20 L 483.56 -0.94 Q 483.56 -0.22 482.5 0 L 482.5 0 L 482.45 0 Q 481.41 -0.19 481.41 -1.05 L 481.41 -1.05 L 481.41 -9.26 L 470.98 -9.26 L 470.98 -1 Q 470.98 -0.18 469.94 0 L 469.94 0 L 469.88 0 Q 469.03 0 468.82 -1.11 Z M 486.02 -7.51 L 486.02 -7.51 Q 486.02 -11.63 489.92 -14.08 L 489.92 -14.08 Q 491.81 -15.01 493.48 -15.01 L 493.48 -15.01 Q 497.81 -15.01 500.21 -10.9 L 500.21 -10.9 Q 501.04 -9.29 501.04 -7.4 L 501.04 -7.4 L 501.04 -7.12 Q 500.84 -6.02 500 -6.02 L 500 -6.02 L 488.44 -6.02 Q 489.08 -3.84 491.22 -2.68 L 491.22 -2.68 Q 492.48 -2.2 493.58 -2.2 L 493.58 -2.2 Q 494.85 -2.2 496.49 -3.02 L 496.49 -3.02 L 496.82 -3.02 Q 497.8 -2.83 497.8 -2.02 L 497.8 -2.02 L 497.8 -1.86 Q 497.8 -0.51 493.86 0 L 493.86 0 L 493.48 0 Q 489.43 0 487 -3.78 L 487 -3.78 Q 486.02 -5.57 486.02 -7.51 Z M 488.26 -8.16 L 488.26 -8.16 L 498.79 -8.16 Q 498.79 -9.29 497.48 -11.07 L 497.48 -11.07 Q 495.67 -12.77 493.92 -12.77 L 493.92 -12.77 L 493.32 -12.77 Q 490.68 -12.77 488.98 -10.2 L 488.98 -10.2 Q 488.39 -9.17 488.26 -8.16 Z M 503.22 -7.54 L 503.22 -7.54 Q 503.22 -11.72 507.32 -14.17 L 507.32 -14.17 Q 509.06 -14.99 510.72 -14.99 L 510.72 -14.99 Q 514.97 -14.99 517.44 -10.83 L 517.44 -10.83 Q 518.2 -9.14 518.2 -7.32 L 518.2 -7.32 L 518.2 -0.98 Q 518.2 -0.18 517.16 0 L 517.16 0 L 517.1 0 Q 516.4 0 516.06 -0.82 L 516.06 -0.82 L 516.06 -0.88 L 516.12 -2.24 L 516.12 -2.3 Q 513.71 0 510.92 0 L 510.92 0 L 510.5 0 Q 506.69 0 504.14 -3.82 L 504.14 -3.82 Q 503.22 -5.67 503.22 -7.54 Z M 505.36 -7.6 L 505.36 -7.44 Q 505.36 -4.17 508.64 -2.52 L 508.64 -2.52 Q 509.68 -2.14 510.5 -2.14 L 510.5 -2.14 L 510.92 -2.14 Q 513.65 -2.14 515.42 -4.86 L 515.42 -4.86 Q 516.06 -6.15 516.06 -7.32 L 516.06 -7.32 L 516.06 -7.54 Q 516.06 -10.69 512.96 -12.36 L 512.96 -12.36 Q 511.88 -12.85 510.72 -12.85 L 510.72 -12.85 L 510.66 -12.85 Q 507.35 -12.85 505.68 -9.4 L 505.68 -9.4 Q 505.36 -8.33 505.36 -7.6 L 505.36 -7.6 Z M 521.62 -1.1 L 521.62 -1.1 L 521.62 -13.83 Q 521.75 -15.1 522.71 -15.1 L 522.71 -15.1 Q 523.77 -14.84 523.77 -14.17 L 523.77 -14.17 L 523.77 -12.95 Q 526.19 -15.1 528.94 -15.1 L 528.94 -15.1 Q 530.42 -15.1 532.09 -14.38 L 532.09 -14.38 Q 532.53 -13.93 532.53 -13.51 L 532.53 -13.51 L 532.53 -13.45 Q 532.35 -12.41 531.49 -12.41 L 531.49 -12.41 L 531.43 -12.41 Q 529.92 -12.89 529.16 -12.89 L 529.16 -12.89 L 528.84 -12.89 Q 525.6 -12.89 524.09 -9.54 L 524.09 -9.54 Q 523.77 -8.64 523.77 -7.5 L 523.77 -7.5 L 523.77 -1 Q 523.77 -0.18 522.71 0 L 522.71 0 L 522.66 0 Q 521.82 0 521.62 -1.1 Z M 533.91 -13.64 L 533.91 -13.64 Q 534.08 -14.66 534.87 -14.66 L 534.87 -14.66 L 534.87 -14.72 L 535.42 -14.66 L 536.75 -14.66 L 536.75 -19.17 Q 536.88 -20.36 537.67 -20.36 L 537.67 -20.36 L 537.88 -20.36 Q 538.84 -20.16 538.84 -19.5 L 538.84 -19.5 L 538.84 -14.66 L 541.05 -14.66 L 541.54 -14.72 Q 542.29 -14.72 542.55 -13.64 L 542.55 -13.64 Q 542.55 -12.91 541.64 -12.57 L 541.64 -12.57 L 540.83 -12.63 L 538.84 -12.63 L 538.84 -4.73 Q 538.84 -2.67 540.19 -2.2 L 540.19 -2.2 L 541.42 -2.09 L 542.02 -2.09 Q 542.72 -2.09 542.93 -1.07 L 542.93 -1.07 L 542.93 -1.03 Q 542.75 0 541.9 0 L 541.9 0 L 540.78 0 Q 538.21 0 536.97 -2.8 L 536.97 -2.8 Q 536.75 -3.49 536.75 -4.41 L 536.75 -4.41 L 536.75 -12.63 L 535.68 -12.63 L 534.81 -12.57 Q 533.91 -12.89 533.91 -13.64 Z" stroke-linecap="round" />
</g>
</g>
</g>
</svg>